<ttFont>
          <CharString index="0">
            rmoveto
            -7 callgsubr
            185 -7 callsubr
            330 184 9 callgsubr
            vhcurveto
            21 vlineto
            316 -184 235 -332 -329 -185 -235 -316 -29 callgsubr
            -21 rmoveto
            21 vlineto
            167 56 -8 callsubr
            159 55 -141 -167 vhcurveto
            -21 vlineto
            -171 -56 -136 -156 -159 -55 136 171 vhcurveto
            endchar
          </CharString>
          <CharString index="1">
            rmoveto
            453 vlineto
            254 -186 128 -252 -282 -182 -154 -193 -45 callsubr
            80 55 45 91 105 47 -62 -96 vhcurveto
            -61 -123 vlineto
            -334 -167 -131 -225 hvcurveto
            hintmask 01011111
            -190 162 -135 205 129 85 52 65 57 vhcurveto
            hintmask 00111111
            6 -37 10 -34 13 -26 rrcurveto
            303 17 hlineto
            -28 55 -16 66 129 vvcurveto
            hintmask 10011111
            -491 -58 rmoveto
            -82 -52 48 67 91 61 73 147 hvcurveto
            115 -181 hlineto
            -50 -28 -68 -48 -93 hhcurveto
            endchar
          </CharString>
          <CharString index="2">
            rmoveto
            hintmask 11101100
            69 35 41 59 75 vvcurveto
            148 -121 77 -173 -169 -123 -77 -148 -75 42 -59 70 -35 vhcurveto
            hintmask 11110010
            -80 -37 -50 -64 -87 vvcurveto
            -155 134 -75 178 180 130 75 155 87 -49 64 -79 37 vhcurveto
            hintmask 11101100
            -184 225 rmoveto
            57 26 -25 -45 -44 -25 -31 -56 -55 -28 31 44 45 28 25 53 hvcurveto
            hintmask 11110010
            2 -474 rmoveto
            -60 -42 31 51 53 42 25 58 60 43 -25 -53 -51 -41 -31 -60 hvcurveto
            endchar
          </CharString>
          <CharString index="3">
            rmoveto
            59 -11 callsubr
            -94 callsubr
            44 -39 58 hvcurveto
            return
          </CharString>
          <CharString index="4">
            rmoveto
            81 61 57 72 73 -61 57 -81 -81 -60 -57 -73 -72 60 -57 81 35 callsubr
            hmoveto
            81 61 56 73 73 -61 56 -81 -81 -61 -56 -73 -73 61 -56 81 hvcurveto
            return
          </CharString>
          <CharString index="5">
            335 hlineto
            -543 -73 callsubr
            rlineto
            -292 hlineto
            -540 -56 callsubr
            rlineto
            334 hlineto
            95 289 rlineto
            516 hlineto
            -433 254 rmoveto
            175 530 174 -530 rlineto
            endchar
          </CharString>
          <CharString index="6">
            rmoveto
            -180 -131 -131 -157 -177 102 -85 161 54 52 20 32 40 hvcurveto
            -131 -19 -91 -17 -136 hhcurveto
            -13 -168 15 hlineto
            254 203 93 341 hvcurveto
            55 vlineto
            234 -141 91 -170 vhcurveto
            10 -395 rmoveto
            -73 -37 36 68 66 38 56 62 65 37 -31 -81 hvcurveto
            -78 vlineto
            -18 -16 -30 -18 -46 hhcurveto
            endchar
          </CharString>
          <CharString index="7">
            rmoveto
            169 vlineto
            218 -129 105 -183 -183 -127 -105 -218 vhcurveto
            -169 vlineto
            -218 128 -101 184 182 128 101 218 vhcurveto
            -210 177 rmoveto
            -183 vlineto
            -110 -39 -34 -61 -64 -38 34 110 vhcurveto
            183 vlineto
            107 38 39 62 63 39 -39 -107 vhcurveto
            endchar
          </CharString>
          <CharString index="8">
            rmoveto
            -198 311 rlineto
            -326 hlineto
            277 -311 rlineto
            return
          </CharString>
          <CharString index="9">
            rmoveto
            321 -1 261 159 391 vvcurveto
            676 -1063 -244 124 vlineto
            -50 -79 -27 -124 -128 vvcurveto
            -111 vlineto
            105 -66 154 -23 151 26 rrcurveto
            211 vlineto
            -36 -2 -41 3 -30 8 rrcurveto
            58 vlineto
            80 14 71 29 76 vhcurveto
            356 -477 hlineto
            -168 -98 -86 -192 -1 vhcurveto
            -90 -141 18 38 -133 hvcurveto
            -58 -229 rlineto
            -50 139 171 -26 134 hhcurveto
            return
          </CharString>
          <CharString index="10">
            rmoveto
            -314 -957 hlineto
            -187 -90 -79 -157 -157 -92 79 187 vhcurveto
            957 -315 -957 vlineto
            -338 233 -181 331 328 233 181 338 vhcurveto
            endchar
          </CharString>
          <CharString index="11">
            rmoveto
            hintmask 11101100
            81 30 54 58 81 vvcurveto
            148 -130 79 -189 -159 -143 -77 -149 vhcurveto
            210 hlineto
            36 44 21 54 77 26 -40 -34 -52 -35 -34 -73 vhcurveto
            -90 -138 90 hlineto
            hintmask 11110010
            76 46 -25 -66 -44 -32 -41 -78 -73 -45 39 41 hvcurveto
            -211 hlineto
            -183 168 -66 148 189 145 85 148 105 -58 54 -92 24 vhcurveto
            endchar
          </CharString>
          <CharString index="12">
            -133 -95 -127 -143 hvcurveto
            173 -9 rlineto
            61 36 32 46 vhcurveto
            return
          </CharString>
          <CharString index="13">
            -91 callgsubr
            -51 return
          </CharString>
          <CharString index="14">
            -70 callsubr
            680 -24 rmoveto
            323 215 225 338 hvcurveto
            117 vlineto
            374 -208 200 -372 -187 -231 -31 -47 -162 vhcurveto
            59 -228 43 11 74 19 38 7 rlinecurve
            2 -5 -6 -4 -4 -5 -6 -6 rlinecurve
            -61 -66 -57 -146 2 -117 rrcurveto
            -73 vlineto
            -338 5 217 -225 316 hhcurveto
            -1 259 rmoveto
            -134 -90 121 181 hvcurveto
            96 vlineto
            220 1 80 121 142 hhcurveto
            145 81 -114 -210 hvcurveto
            -113 vlineto
            -181 -90 -121 -135 vhcurveto
            return
          </CharString>
          <CharString index="15">
            rmoveto
            -197 -311 rlineto
            245 hlineto
            278 311 rlineto
            return
          </CharString>
          <CharString index="16">
            37 callgsubr
            -91 -91 67 -69 102 103 67 69 91 91 -67 69 -103 hvcurveto
            return
          </CharString>
          <CharString index="17">
            rmoveto
            373 569 245 -569 331 668 254 -982 -56 callsubr
            983 253 vlineto
            endchar
          </CharString>
          <CharString index="18">
            978 rmoveto
            -124 -99 -48 -70 -70 hvcurveto
            233 35 170 132 262 hhcurveto
            18 249 -44 hlineto
            -453 -296 -315 -481 hvcurveto
            -116 vlineto
            -352 209 -230 310 299 196 217 284 274 -140 223 -273 vhcurveto
            -88 -754 rmoveto
            -128 -83 97 199 hvcurveto
            90 vlineto
            69 32 72 57 99 hhcurveto
            128 80 -104 -153 -147 -79 -108 -121 hvcurveto
            endchar
          </CharString>
          <CharString index="19">
            2 233 rlineto
            12 -47 -50 8 -54 hhcurveto
            -246 -155 -135 -248 hvcurveto
            -92 -160 -220 160 -862 302 862 return
          </CharString>
          <CharString index="20">
            rmoveto
            129 94 89 112 111 -94 93 -129 -129 -94 -93 -111 -112 94 -89 129 hvcurveto
            309 vmoveto
            65 42 -50 -58 -59 -42 -47 -65 -66 -41 48 58 58 41 50 66 hvcurveto
            return
          </CharString>
          <CharString index="21">
            169 160 169 145 169 hstemhm
            71 210 -192 211 164 211 -191 209 hintmask 11110010
            565 return
          </CharString>
          <CharString index="22">
            21 -21 23 callgsubr
            return
          </CharString>
          <CharString index="23">
            -73 -27 -43 -34 -112 hhcurveto
            -14 -16 0 1 -15 hvcurveto
            -228 vlineto
            -13 50 24 -6 57 hhcurveto
            234 77 166 109 38 hvcurveto
            434 1244 rlineto
            endchar
          </CharString>
          <CharString index="24">
            -172 12 rlineto
            -62 -38 -32 -46 vhcurveto
            return
          </CharString>
          <CharString index="25">
            -63 callgsubr
            -78 callgsubr
            -83 callsubr
            return
          </CharString>
          <CharString index="26">
            38 -30 callsubr
            -38 return
          </CharString>
          <CharString index="27">
            177 -38 42 -35 -58 vvcurveto
            -65 -55 -44 -105 -103 -85 44 109 -4 vhcurveto
            -285 hlineto
            -175 164 -191 306 281 179 141 191 220 -181 78 -230 44 vhcurveto
            -145 27 -51 37 61 vvcurveto
            64 56 47 89 110 48 -55 -83 vhcurveto
            return
          </CharString>
          <CharString index="28">
            rmoveto
            314 684 -502 -244 188 hlineto
            return
          </CharString>
          <CharString index="29">
            21 -21 -24 callgsubr
            return
          </CharString>
          <CharString index="30">
            -244 187 hlineto
            -47 -76 -21 -118 -80 vvcurveto
            -291 vlineto
            hintmask 10001110
            -106 -51 -48 -94 -23 -21 1 1 -22 vhcurveto
            hintmask 00101110
            -242 vlineto
            hintmask 01001110
            -9 53 42 -5 57 hhcurveto
            229 135 141 243 hvcurveto
            343 vlineto
            78 12 94 20 74 vhcurveto
            return
          </CharString>
          <CharString index="31">
            168 96 155 226 169 hstem
            67 211 202 209 vstem
            378 return
          </CharString>
          <CharString index="32">
            258 21 -21 289 254 913 -20 return
          </CharString>
          <CharString index="33">
            rmoveto
            117 -641 -169 421 vlineto
            -331 -620 rlineto
            222 hlineto
            endchar
          </CharString>
          <CharString index="34">
            1456 return
          </CharString>
          <CharString index="35">
            -15 -20 243 220 202 214 243 return
          </CharString>
          <CharString index="36">
            158 -234 -158 vlineto
            -126 -41 -88 -47 -78 vhcurveto
            139 -80 rlineto
            98 86 85 154 132 vvcurveto
            return
          </CharString>
          <CharString index="37">
            314 vstem
            return
          </CharString>
          <CharString index="38">
            -70 callsubr
            181 18 callsubr
            1199 -419 -244 105 hlineto
            return
          </CharString>
          <CharString index="39">
            -20 243 636 243 return
          </CharString>
          <CharString index="40">
            rmoveto
            -192 hlineto
            -278 -390 rlineto
            -19 vlineto
            278 -390 rlineto
            192 hlineto
            -237 400 rlineto
            return
          </CharString>
          <CharString index="41">
            -21 513 -51 callsubr
            return
          </CharString>
          <CharString index="42">
            1444 9 callsubr
            rmoveto
            59 29 callsubr
            -59 -81 callgsubr
            -978 -13 callgsubr
            return
          </CharString>
          <CharString index="43">
            26 0 253 373 245 331 254 return
          </CharString>
          <CharString index="44">
            1157 -65 callgsubr
            -351 hlineto
            -182 -392 -246 392 rlineto
            -349 hlineto
            644 -954 rlineto
            -545 -245 948 142 hlineto
            -268 387 rlineto
            return
          </CharString>
          <CharString index="45">
            9 callsubr
            rmoveto
            58 29 callsubr
            -58 -81 callgsubr
            return
          </CharString>
          <CharString index="46">
            787 -19 vlineto
            -375 -122 rlineto
            -161 vlineto
            185 39 rlineto
            -543 vlineto
            endchar
          </CharString>
          <CharString index="47">
            rmoveto
            -195 -656 -193 656 rlineto
            -324 hlineto
            378 -1087 -30 -79 rlineto
            return
          </CharString>
          <CharString index="48">
            -53 -51 -50 callgsubr
            return
          </CharString>
          <CharString index="49">
            rmoveto
            53 -43 -94 callsubr
            44 -39 58 59 43 38 52 vhcurveto
            endchar
          </CharString>
          <CharString index="50">
            289 -20 257 981 258 return
          </CharString>
          <CharString index="51">
            -1456 return
          </CharString>
          <CharString index="52">
            -70 callsubr
            598 hmoveto
            360 12 216 185 334 vvcurveto
            668 -1011 -244 697 -431 vlineto
            -184 -96 -95 -166 -7 vhcurveto
            return
          </CharString>
          <CharString index="53">
            -40 callgsubr
            -302 -1165 vlineto
            endchar
          </CharString>
          <CharString index="54">
            -70 callsubr
            831 18 callsubr
            760 hlineto
            279 -176 160 -306 vhcurveto
            -518 -244 495 hlineto
            129 62 -59 -121 hvcurveto
            return
          </CharString>
          <CharString index="55">
            186 -101 186 hstemhm
            return
          </CharString>
          <CharString index="56">
            181 261 244 return
          </CharString>
          <CharString index="57">
            -70 callsubr
            571 18 callsubr
            776 24 callgsubr
            -174 157 -292 vhcurveto
            -384 -244 361 hlineto
            114 61 -57 -106 hvcurveto
            return
          </CharString>
          <CharString index="58">
            303 vstem
            return
          </CharString>
          <CharString index="59">
            hlineto
            -80 399 rlineto
            -13 62 -7 68 63 vvcurveto
            607 -571 -244 return
          </CharString>
          <CharString index="60">
            143 104 165 hstem
            481 210 vstem
            85 return
          </CharString>
          <CharString index="61">
            -56 callsubr
            314 return
          </CharString>
          <CharString index="62">
            -29 callgsubr
            hlineto
            return
          </CharString>
          <CharString index="63">
            1045 -65 callgsubr
            -666 337 -314 -581 643 hlineto
            -392 -955 rlineto
            332 hlineto
            397 998 rlineto
            return
          </CharString>
          <CharString index="64">
            -73 callsubr
            -313 -939 vlineto
            -566 939 rlineto
            -314 -46 callsubr
            939 hlineto
            566 -939 rlineto
            endchar
          </CharString>
          <CharString index="65">
            -426 234 172 23 callsubr
            878 244 hstemhm
            return
          </CharString>
          <CharString index="66">
            227 -20 253 1223 -20 return
          </CharString>
          <CharString index="67">
            234 -26 249 216.6 221.4 return
          </CharString>
          <CharString index="68">
            hstemhm
            101 301 30 callsubr
            hintmask 01111000
            return
          </CharString>
          <CharString index="69">
            hstemhm
            63 301 323 302 return
          </CharString>
          <CharString index="70">
            rmoveto
            59 42 39 52 return
          </CharString>
          <CharString index="71">
            182 hstem
            532 202 vstem
            634 -341 rmoveto
            58 42 39 -2 callsubr
            38 -58 -59 -43 -38 -53 return
          </CharString>
          <CharString index="72">
            rmoveto
            303 869 hlineto
            100 7 72 12 52 vhcurveto
            -251 hlineto
            -23 -27 -48 -67 -163 vvcurveto
            endchar
          </CharString>
          <CharString index="73">
            rmoveto
            303 445 hlineto
            100 8 72 11 52 vhcurveto
            -250 hlineto
            -23 -27 -49 -66 -165 vvcurveto
            endchar
          </CharString>
          <CharString index="74">
            311 hstem
            return
          </CharString>
          <CharString index="75">
            302 hintmask 00111100
            667 37 callsubr
            -110 -84 -42 -71 -63 hvcurveto
            547 -302 -1536 return
          </CharString>
          <CharString index="76">
            -14 callsubr
            60 -65 callgsubr
            -244 508 -955 313 955 211 244 vlineto
            return
          </CharString>
          <CharString index="77">
            -59 -58 -44 return
          </CharString>
          <CharString index="78">
            912 -5 callgsubr
            -52 -50 callgsubr
            return
          </CharString>
          <CharString index="79">
            -341 -37 callsubr
            53 -42 38 -59 -58 return
          </CharString>
          <CharString index="80">
            -329 hvcurveto
            -7 callgsubr
            return
          </CharString>
          <CharString index="81">
            -18 callsubr
            31 callsubr
            return
          </CharString>
          <CharString index="82">
            vhcurveto
            -1304 303 1529 vlineto
            13 -142 -240 15 -120 hhcurveto
            endchar
          </CharString>
          <CharString index="83">
            308 vstem
            597 -416 rmoveto
            308 1615 -836 -244 528 hlineto
            return
          </CharString>
          <CharString index="84">
            1367 rmoveto
            582 159 -582 hlineto
            return
          </CharString>
          <CharString index="85">
            2 -771 rlineto
            313 745 hlineto
            300 return
          </CharString>
          <CharString index="86">
            hstem
            409 211 vstem
            705 return
          </CharString>
          <CharString index="87">
            -1125 9 callsubr
            182 hstem
            return
          </CharString>
          <CharString index="88">
            170 hvcurveto
            21 vlineto
            return
          </CharString>
          <CharString index="89">
            243 hstem
            return
          </CharString>
          <CharString index="90">
            21 -21 hstem
            return
          </CharString>
          <CharString index="91">
            228 rmoveto
            -76 -34 22 89 hvcurveto
            523 182 220 -182 268 return
          </CharString>
          <CharString index="92">
            hstem
            5 1375 vstem
            return
          </CharString>
          <CharString index="93">
            313 vstem
            return
          </CharString>
          <CharString index="94">
            45 18 callgsubr
            1028 311 32 callgsubr
            return
          </CharString>
          <CharString index="95">
            rmoveto
            478 133 -478 hlineto
            endchar
          </CharString>
          <CharString index="96">
            43 13 callgsubr
            -43 return
          </CharString>
          <CharString index="97">
            -232 122 -92 196 71 57 10 18 50 vhcurveto
            227 vlineto
            return
          </CharString>
          <CharString index="98">
            -273 -162 -157 -181 -188 165 -96 219 -47 return
          </CharString>
          <CharString index="99">
            141 156 return
          </CharString>
          <CharString index="100">
            -235 331 return
          </CharString>
          <CharString index="101">
            166 1 148 1 179 rcurveline
            -280 -207 hlineto
            -101 return
          </CharString>
          <CharString index="102">
            60 131 120 79 -23 -22 74 vhcurveto
            43 250 rlineto
            34 return
          </CharString>
          <CharString index="103">
            26 callsubr
            955 244 hstemhm
            return
          </CharString>
          <CharString index="104">
            -49 -128 -97 -70 -152 -2 rrcurveto
            -29 -32 3 5 -33 hvcurveto
            return
          </CharString>
          <CharString index="105">
            52 53 -42 return
          </CharString>
          <CharString index="106">
            1557 rmoveto
            -289 -167 -141 -259 hvcurveto
            -75 return
          </CharString>
          <CharString index="107">
            34 callgsubr
            -156 133 hstemhm
            return
          </CharString>
          <CharString index="108">
            rmoveto
            12 callgsubr
          </CharString>
          <CharString index="109">
            0 245 710 -32 callgsubr
            return
          </CharString>
          <CharString index="110">
            102 66 69 90 90 -66 69 -102 return
          </CharString>
          <CharString index="111">
            116 214 116 return
          </CharString>
          <CharString index="112">
            115 -76 45 -74 13 return
          </CharString>
          <CharString index="113">
            12 callsubr
            -33 callsubr
            return
          </CharString>
          <CharString index="114">
            -21 858 244 return
          </CharString>
          <CharString index="115">
            254 -233 -21 return
          </CharString>
          <CharString index="116">
            1352 return
          </CharString>
          <CharString index="117">
            1498 vlineto
            hintmask 10111000
            -483 -859 rmoveto
            -146 return
          </CharString>
          <CharString index="118">
            59 42 39 -2 callsubr
            -94 callsubr
            return
          </CharString>
          <CharString index="119">
            1225 return
          </CharString>
          <CharString index="120">
            -553 -343 231 1579 232 hstem
            return
          </CharString>
          <CharString index="121">
            168 hvcurveto
            21 vlineto
            178 53 145 144 return
          </CharString>
          <CharString index="122">
            21 7 callsubr
            hstem
            return
          </CharString>
          <CharString index="123">
            203 hintmask 00000000
            return
          </CharString>
          <CharString index="124">
            254 hstem
            return
          </CharString>
          <CharString index="125">
            hmoveto
            314 return
          </CharString>
          <CharString index="126">
            -313 hlineto
            -169 -12 -84 -82 -181 hhcurveto
            return
          </CharString>
          <CharString index="127">
            -85 callsubr
            181 314 return
          </CharString>
          <CharString index="128">
            hhcurveto
            -305 -178 -153 -283 hvcurveto
            -39 return
          </CharString>
          <CharString index="129">
            100 hlineto
            206 72 -107 -209 hvcurveto
            endchar
          </CharString>
          <CharString index="130">
            244 -223 -21 return
          </CharString>
          <CharString index="131">
            301 vstem
            return
          </CharString>
          <CharString index="132">
            58 43 39 52 57 -50 11 -12 112 return
          </CharString>
          <CharString index="133">
            -13 280 -259 -21 26 -21 29 -21 return
          </CharString>
          <CharString index="134">
            -18 8 callsubr
            35 -21 25 -21 return
          </CharString>
          <CharString index="135">
            302 398 302 return
          </CharString>
          <CharString index="136">
            -11 callsubr
            39 return
          </CharString>
          <CharString index="137">
            342 302 return
          </CharString>
          <CharString index="138">
            95 303 return
          </CharString>
          <CharString index="139">
            -58 -44 -39 -53 -52 44 -38 58 hvcurveto
            return
          </CharString>
          <CharString index="140">
            -213 132 -86 297 -69 vhcurveto
            return
          </CharString>
          <CharString index="141">
            220 -144 102 -295 64 vhcurveto
            return
          </CharString>
          <CharString index="142">
            hvcurveto
            496 return
          </CharString>
          <CharString index="143">
            vlineto
            -315 return
          </CharString>
          <CharString index="144">
            1102 rmoveto
            return
          </CharString>
          <CharString index="145">
            -59 35 vhcurveto
            -449 vlineto
            -59 -35 return
          </CharString>
          <CharString index="146">
            -1125 1175 196 hstem
            return
          </CharString>
          <CharString index="147">
            304 31 204 39 303 return
          </CharString>
          <CharString index="148">
            -122 -4 -75 -53 -137 hhcurveto
            return
          </CharString>
        <CharString name=".notdef">
          226 -555 186 90 126 90 62 89 127 89 162 89 65 151 60 91 63 89 100 89 73 92 97 92 70 89 100 89 181 hstemhm
          251 200 89 89 -89 270 -89 89 89 208 hintmask 111111111111111101100000
          1107 2146 rmoveto
          -856 -2701 856 hlineto
          -208 2520 rmoveto
          -89 -178 -100 178 -89 -448 89 178 100 -175 89 vlineto
          267 -348 rmoveto
          -189 178 -92 -448 281 vlineto
          178 -92 rmoveto
          -89 -97 89 hlineto
          270 -165 rmoveto
          -89 -178 -189 -270 89 178 100 -178 89 vlineto
          448 -162 rmoveto
          -270 -448 91 359 179 vlineto
          89 -330 rmoveto
          -305 -448 305 89 -216 270 127 -89 -62 -92 151 vlineto
          270 -467 rmoveto
          -305 -448 305 vlineto
          hintmask 111100000000001010100000
          359 -89 rmoveto
          -270 -127 270 hlineto
          89 -151 rmoveto
          -90 -86 vlineto
          -189 -126 rlineto
          275 -90 -448 90 hlineto
          189 126 rlineto
          -189 90 hlineto
          endchar
        </CharString>
        <CharString name=".null">
          -1125 endchar
        </CharString>
        <CharString name="A">
          -75 callsubr
          -15 callsubr
          1045 hmoveto
          -102 callsubr
        </CharString>
        <CharString name="A.smcp">
          -46 callgsubr
          30 callgsubr
          900 hmoveto
          -102 callgsubr
        </CharString>
        <CharString name="AE">
          801 0 247 85 256 35 247 339 247 hstem
          6 1856 vstem
          1257 247 rmoveto
          -16 376 rlineto
          479 247 -489 hlineto
          -15 339 rlineto
          585 247 -1022 hlineto
          -773 -56 callsubr
          rlineto
          353 hlineto
          163 332 rlineto
          429 hlineto
          14 -332 rlineto
          897 247 hlineto
          -1214 341 rmoveto
          269 546 23 -546 rlineto
          endchar
        </CharString>
        <CharString name="AE.smcp">
          494 0 241 -25 238 30 242 198 241 hstemhm
          -49 1608 -855.5 294 hintmask 10111000
          1020 241 rmoveto
          -9 243 rlineto
          441 242 hlineto
          hintmask 10110100
          -451 hlineto
          -7 198 rlineto
          519 241 -986 hlineto
          -576 -1165 rlineto
          328 hlineto
          hintmask 01111000
          98 216 rlineto
          345 hlineto
          hintmask 10111000
          8 -216 rlineto
          829 241 hlineto
          hintmask 01110100
          -1074 213 rmoveto
          210 460 17 -460 rlineto
          endchar
        </CharString>
        <CharString name="Aacute">
          -75 callsubr
          99 311 -15 callsubr
          1067 1846 -85 callgsubr
          256 -1535 rmoveto
          -102 callsubr
        </CharString>
        <CharString name="Aacute.smcp">
          -46 callgsubr
          821 311 30 callgsubr
          975 1566 -85 callgsubr
          203 -1255 rmoveto
          -102 callgsubr
        </CharString>
        <CharString name="Acircumflex">
          -75 callsubr
          118 12 -15 callsubr
          694 1695 rmoveto
          156 -141 rlineto
          238 12 hlineto
          -100 callgsubr
          506 -1554 rmoveto
          -102 callsubr
        </CharString>
        <CharString name="Acircumflex.smcp">
          -46 callgsubr
          840 12 30 callgsubr
          602 1415 rmoveto
          156 -141 rlineto
          238 12 hlineto
          -100 callgsubr
          453 -1274 rmoveto
          -102 callgsubr
        </CharString>
        <CharString name="Adieresis">
          -75 callsubr
          110 259 -15 callsubr
          445 1546 -103 callsubr
          104 -1546 rmoveto
          -102 callsubr
        </CharString>
        <CharString name="Adieresis.smcp">
          -46 callgsubr
          832 259 30 callgsubr
          353 1266 -103 callsubr
          51 -1266 rmoveto
          -102 callgsubr
        </CharString>
        <CharString name="Agrave">
          -75 callsubr
          99 311 -15 callsubr
          861 1535 -99 callsubr
          431 -1535 rmoveto
          -102 callsubr
        </CharString>
        <CharString name="Agrave.smcp">
          -46 callgsubr
          821 311 30 callgsubr
          769 1255 -99 callsubr
          378 -1255 rmoveto
          -102 callgsubr
        </CharString>
        <CharString name="Aring">
          -75 callsubr
          93 95 214 96 hstem
          473 4 callsubr
          vstem
          696 1529 -87 callsubr
          349 -1838 rmoveto
          -102 callsubr
        </CharString>
        <CharString name="Aring.smcp">
          -46 callgsubr
          815 95 214 96 hstem
          381 4 callsubr
          vstem
          604 1249 -87 callsubr
          296 -1558 rmoveto
          -102 callgsubr
        </CharString>
        <CharString name="Atilde">
          -75 callsubr
          129 -52 callsubr
          314 -51 callgsubr
          hintmask 00000000
          hintmask 11101110
          569 1650 rmoveto
          hintmask 11110110
          -82 callsubr
          hintmask 11101110
          -45 callgsubr
          -95 callsubr
          hintmask 11110110
          476 -1650 rmoveto
          -102 callsubr
        </CharString>
        <CharString name="Atilde.smcp">
          -46 callgsubr
          851 -52 callsubr
          222 -51 callgsubr
          hintmask 00000000
          hintmask 11011100
          477 1370 rmoveto
          hintmask 11101100
          -82 callsubr
          -45 callgsubr
          hintmask 11011100
          -95 callsubr
          hintmask 11101100
          423 -1370 rmoveto
          -102 callgsubr
        </CharString>
        <CharString name="B">
          186 0 253 376 219 354 254 hstemhm
          -14 callgsubr
          434 314 -281 313 hintmask 11110100
          980 748 rmoveto
          hintmask 11111000
          145 56 62 120 132 vvcurveto
          272 -205 128 -343 vhcurveto
          -514 -56 callsubr
          563 hlineto
          hintmask 11110100
          343 188 146 284 138 -68 137 -171 43 hvcurveto
          -341 454 rmoveto
          hintmask 11111000
          163 71 -52 -129 -113 -73 -60 -161 hvcurveto
          -200 354 hlineto
          hintmask 11110100
          249 -949 rmoveto
          -249 376 262 hlineto
          147 58 -75 -121 -102 -67 -78 -151 hvcurveto
          endchar
        </CharString>
        <CharString name="B.smcp">
          12 0 243 237 202 240 -26 callsubr
          vstem
          865 589 rmoveto
          128 47 47 103 104 vvcurveto
          217 -183 105 -308 vhcurveto
          -454 -1165 499 hlineto
          310 161 102 232 102 -53 117 -147 36 hvcurveto
          -291 333 rmoveto
          109 54 -35 -89 -78 -53 -38 -115 hvcurveto
          -171 240 hlineto
          196 -679 rmoveto
          -196 237 209 hlineto
          114 43 -46 -77 -57 -48 -57 -122 hvcurveto
          endchar
        </CharString>
        <CharString name="C">
          217 -20 257 983 257 hstem
          82 318 vstem
          1278 488 rmoveto
          19 callsubr
          -69 callgsubr
          -433 228 -270 378 358 213 209 299 19 vhcurveto
          endchar
        </CharString>
        <CharString name="C.smcp">
          32 18 callgsubr
          712 -18 callsubr
          60 -58 callgsubr
          1109 402 rmoveto
          -302 hlineto
          41 callsubr
          -67 callgsubr
          -357 196 -217 335 309 196 166 252 13 vhcurveto
          endchar
        </CharString>
        <CharString name="C.ss06">
          257 -21 253 991 17 callsubr
          83 -70 callsubr
          1316 488 rmoveto
          -313 hlineto
          -160 -21 -81 -96 -180 hhcurveto
          -207 -117 176 297 hvcurveto
          48 vlineto
          297 129 173 194 195 68 -95 -169 22 vhcurveto
          314 hlineto
          315 -30 -200 203 -369 hhcurveto
          -369 -268 -278 -448 hvcurveto
          -46 vlineto
          -449 258 -277 380 359 207 185 324 29 vhcurveto
          endchar
        </CharString>
        <CharString name="Ccedilla">
          217 -468 174 304 -21 1231 257 hstem
          82 318 286 256 vstem
          688 237 rmoveto
          -69 callgsubr
          -387 182 -257 308 -50 vhcurveto
          -27 -127 rlineto
          -79 callgsubr
          5 callsubr
          hvcurveto
          8 40 290 39 171 195 17 267 rlinecurve
          19 callsubr
          endchar
        </CharString>
        <CharString name="Ccedilla.smcp">
          32 -462 174 301 -21 22 -21 946 -17 callgsubr
          60 302 230 256 hintmask 10111100
          591 227 rmoveto
          -67 callgsubr
          -315 152 -206 266 -44 vhcurveto
          -27 -125 rlineto
          -79 callgsubr
          hvcurveto
          hintmask 11011100
          5 callsubr
          vhcurveto
          7 39 243 36 150 155 11 219 rlinecurve
          -302 hlineto
          hintmask 10111100
          41 callsubr
          endchar
        </CharString>
        <CharString name="D">
          205 41 callgsubr
          125 314 489 319 vstem
          579 -33 callgsubr
          -454 -56 callsubr
          -61 callgsubr
          949 2 callgsubr
        </CharString>
        <CharString name="D.smcp">
          15 0 243 679 -26 callsubr
          378 -49 callsubr
          498 -18 callgsubr
          -403 -1165 -55 callgsubr
          679 22 callsubr
        </CharString>
        <CharString name="D.ss06">
          264 41 callgsubr
          126 314 551 -70 callsubr
          582 -33 callgsubr
          -456 -56 callsubr
          454 hlineto
          439 286 302 404 hvcurveto
          43 vlineto
          404 -287 303 -436 vhcurveto
          409 -750 rmoveto
          -251 -125 -202 -304 vhcurveto
          -122 949 123 hlineto
          303 125 -198 -253 hvcurveto
          endchar
        </CharString>
        <CharString name="E">
          -64 callsubr
          hstem
          125 -70 callsubr
          439 253 -90 callsubr
        </CharString>
        <CharString name="E.smcp">
          -66 callgsubr
          hstem
          95 -49 callsubr
          960 922 -89 callgsubr
        </CharString>
        <CharString name="Eacute">
          -64 callsubr
          81 -33 callsubr
          -14 callgsubr
          vstem
          1010 1848 -85 callgsubr
          -293 -1284 -90 callsubr
        </CharString>
        <CharString name="Eacute.smcp">
          -66 callgsubr
          90 -33 callsubr
          95 -49 callsubr
          928 1566 -85 callgsubr
          310 -333 -89 callgsubr
        </CharString>
        <CharString name="Ecircumflex">
          -64 callsubr
          100 12 hstem
          -14 callgsubr
          vstem
          637 1697 rmoveto
          156 -141 rlineto
          238 12 hlineto
          -100 callgsubr
          -43 -1303 -90 callsubr
        </CharString>
        <CharString name="Ecircumflex.smcp">
          -66 callgsubr
          109 12 hstem
          95 -49 callsubr
          555 1415 rmoveto
          156 -141 rlineto
          238 12 hlineto
          -100 callgsubr
          560 -352 -89 callgsubr
        </CharString>
        <CharString name="Edieresis">
          -64 callsubr
          92 259 hstem
          -14 callgsubr
          vstem
          388 1548 -103 callsubr
          -445 -1295 -90 callsubr
        </CharString>
        <CharString name="Edieresis.smcp">
          -66 callgsubr
          101 259 hstem
          95 -49 callsubr
          306 1266 -103 callsubr
          158 -344 -89 callgsubr
        </CharString>
        <CharString name="Egrave">
          -64 callsubr
          81 -33 callsubr
          -14 callgsubr
          vstem
          804 1537 -99 callsubr
          -118 -1284 -90 callsubr
        </CharString>
        <CharString name="Egrave.smcp">
          -66 callgsubr
          90 -33 callsubr
          95 -49 callsubr
          722 1255 -99 callsubr
          485 -333 -89 callgsubr
        </CharString>
        <CharString name="Eth">
          205 0 253 386 186 377 -26 callgsubr
          489 319 vstem
          579 -33 callgsubr
          -454 -631 -147 -186 147 -639 -61 callgsubr
          386 247 186 -247 377 2 callgsubr
        </CharString>
        <CharString name="Eth.smcp">
          15 0 243 244 186 249 -26 callsubr
          378 -49 callsubr
          498 -18 callgsubr
          -403 -492 -210 -186 210 -487 -55 callgsubr
          244 195 186 -195 249 22 callsubr
        </CharString>
        <CharString name="Euro">
          53 -19 252 280 155 124 154 277 252 hstemhm
          89 1009 -842 315 hintmask 11111000
          873 233 rmoveto
          -175 -119 63 217 -8 hvcurveto
          329 155 hlineto
          hintmask 11110100
          -329 124 329 154 -326 hlineto
          198 18 110 79 178 hhcurveto
          61 67 -14 -18 52 hvcurveto
          38 253 rlineto
          19 -77 -79 12 -79 hhcurveto
          -339 -241 -181 -348 -25 hvcurveto
          -169 -154 167 -124 -167 -155 167 hlineto
          -353 11 241 -179 332 hhcurveto
          90 88 11 19 80 hvcurveto
          -38 252 rlineto
          hintmask 11111000
          -21 -57 -63 -9 -67 hhcurveto
          endchar
        </CharString>
        <CharString name="Euro.smcp">
          -94 18 callgsubr
          141 174 72 175 152 -18 callsubr
          72 888 vstem
          736 227 rmoveto
          -115 -66 47 94 -25 hvcurveto
          347 174 -359 72 359 175 -346 hlineto
          99 25 64 53 114 hhcurveto
          79 53 -8 -21 72 hvcurveto
          22 239 rlineto
          23 -80 -61 10 -85 hhcurveto
          -282 -184 -147 -248 -43 hvcurveto
          -153 -175 143 -72 -143 -174 152 hlineto
          -239 41 187 -145 284 hhcurveto
          84 63 11 20 75 hvcurveto
          -22 239 rlineto
          -14 -68 -54 -13 -78 hhcurveto
          endchar
        </CharString>
        <CharString name="F">
          -3 21 -21 590 252 360 -26 callgsubr
          vstem
          1081 1202 rmoveto
          254 -956 -46 callsubr
          590 573 252 -573 360 vlineto
          endchar
        </CharString>
        <CharString name="F.smcp">
          -162 21 -21 449 244 229 -26 callsubr
          vstem
          934 922 rmoveto
          243 -839 -37 callgsubr
          449 486 244 -486 229 vlineto
          endchar
        </CharString>
        <CharString name="G">
          271 -20 253 309 228 454 253 hstem
          91 318 565 -70 callsubr
          1288 183 rmoveto
          587 -579 -228 265 -241 vlineto
          -30 -31 -64 -38 -135 hhcurveto
          -222 -113 154 298 hvcurveto
          87 vlineto
          299 110 153 195 176 71 -90 -145 22 vhcurveto
          304 hlineto
          286 -31 -167 202 -384 hhcurveto
          -367 -247 -256 -451 hvcurveto
          -85 vlineto
          -451 255 -254 379 319 174 121 82 70 vhcurveto
          endchar
        </CharString>
        <CharString name="G.smcp">
          60 18 callgsubr
          195 213 304 -18 callsubr
          71 302 444 -49 callsubr
          1120 140 rmoveto
          495 -521 -213 218 -158 vlineto
          -16 -24 -54 -21 -95 hhcurveto
          -184 -87 104 221 hvcurveto
          62 vlineto
          225 98 100 145 138 57 -54 -112 18 vhcurveto
          290 hlineto
          241 -25 -143 168 -345 hhcurveto
          -311 -224 -204 -366 hvcurveto
          -60 vlineto
          -365 218 -203 333 270 163 90 66 65 vhcurveto
          endchar
        </CharString>
        <CharString name="G.ss06">
          297 -21 253 295 229 467 17 callsubr
          83 314 607 315 vstem
          1319 182 rmoveto
          574 -560 -229 245 -237 vlineto
          -29 -28 -75 -29 -124 hhcurveto
          -234 -146 189 276 hvcurveto
          54 vlineto
          287 135 185 205 166 89 -89 -145 21 vhcurveto
          305 hlineto
          286 -31 -186 202 -373 hhcurveto
          -377 -268 -288 -440 hvcurveto
          -52 vlineto
          -427 291 -291 403 297 178 121 82 67 vhcurveto
          endchar
        </CharString>
        <CharString name="H">
          321 21 -21 618 253 585 -20 hstem
          -14 callgsubr
          567 -14 callsubr
          1006 -33 callgsubr
          -585 -567 585 -314 -46 callsubr
          618 567 -618 313 -73 callsubr
          vlineto
          endchar
        </CharString>
        <CharString name="H.smcp">
          112 21 -21 449 -32 callgsubr
          31 callsubr
          443 24 callsubr
          841 -18 callgsubr
          -472 -443 472 -303 -37 callgsubr
          449 443 -449 301 -40 callgsubr
          vlineto
          endchar
        </CharString>
        <CharString name="I">
          -19 callgsubr
          hstem
          145 -14 callsubr
          458 hmoveto
          -53 callgsubr
        </CharString>
        <CharString name="I.smcp">
          -593 21 -21 6 callgsubr
          417 hmoveto
          -54 callsubr
        </CharString>
        <CharString name="Iacute">
          -19 callgsubr
          101 -33 callsubr
          145 -14 callsubr
          348 1848 -92 callsubr
          -216 -1848 rmoveto
          -53 callgsubr
        </CharString>
        <CharString name="Iacute.smcp">
          -6 callgsubr
          314 1566 -92 callsubr
          -223 -1566 rmoveto
          -54 callsubr
        </CharString>
        <CharString name="Icircumflex">
          -19 callgsubr
          120 12 hstem
          145 -14 callsubr
          695 1568 rmoveto
          -100 callgsubr
          155 -8 callsubr
          -141 rlineto
          238 hlineto
          -237 -1556 rmoveto
          -53 callgsubr
        </CharString>
        <CharString name="Icircumflex.smcp">
          -593 21 -21 1274 12 6 callgsubr
          661 1286 rmoveto
          -100 callgsubr
          155 -8 callsubr
          -141 rlineto
          238 hlineto
          -244 -1274 rmoveto
          -54 callsubr
        </CharString>
        <CharString name="Idieresis">
          -19 callgsubr
          112 259 hstem
          145 -14 callsubr
          52 1807 -103 callgsubr
          -90 -1806 rmoveto
          -53 callgsubr
        </CharString>
        <CharString name="Idieresis.smcp">
          -593 21 -21 1266 259 6 callgsubr
          18 1525 -103 callgsubr
          -97 -1524 rmoveto
          -54 callsubr
        </CharString>
        <CharString name="Igrave">
          -19 callgsubr
          101 -33 callsubr
          145 -14 callsubr
          468 1537 -99 callsubr
          237 -1537 rmoveto
          -53 callgsubr
        </CharString>
        <CharString name="Igrave.smcp">
          -6 callgsubr
          434 1255 -99 callsubr
          230 -1255 rmoveto
          -54 callsubr
        </CharString>
        <CharString name="J">
          21 -20 253 1223 -20 hstem
          711 -14 callsubr
          711 -33 callgsubr
          -1004 vlineto
          -139 -69 -80 -110 -110 -67 48 153 vhcurveto
          -315 hlineto
          -311 206 -143 286 279 213 180 292 vhcurveto
          1004 vlineto
          endchar
        </CharString>
        <CharString name="J.smcp">
          -135 -16 -18 callsubr
          592 -49 callsubr
          592 -18 callgsubr
          -763 vlineto
          -122 -40 -53 -81 -92 -45 47 105 vhcurveto
          -302 hlineto
          -272 176 -123 263 233 191 153 265 vhcurveto
          763 vlineto
          endchar
        </CharString>
        <CharString name="K">
          178 -78 callsubr
          hstem
          -14 callgsubr
          vstem
          949 hmoveto
          372 hlineto
          -520 810 509 646 rlineto
          -386 hlineto
          -356 -470 -129 -182 rlineto
          652 -314 -46 callsubr
          407 vlineto
          153 165 rlineto
          endchar
        </CharString>
        <CharString name="K.alt">
          199 21 -21 588 293 575 -20 hstem
          126 -70 callsubr
          968 hmoveto
          374 hlineto
          -483 771 435 685 rlineto
          -381 hlineto
          -336 -575 rlineto
          -137 575 -314 -46 callsubr
          588 172 hlineto
          endchar
        </CharString>
        <CharString name="K.alt2">
          201 -78 callsubr
          hstem
          126 -70 callsubr
          1312 hmoveto
          -571 734 541 722 rlineto
          -388 hlineto
          -454 -637 rlineto
          637 -314 -46 callsubr
          637 vlineto
          480 -637 rlineto
          endchar
        </CharString>
        <CharString name="K.smcp">
          1 -17 callsubr
          95 -49 callsubr
          788 hmoveto
          357 hlineto
          -419 642 411 523 rlineto
          -378 hlineto
          -267 -347 -94 -129 rlineto
          476 -303 -37 callgsubr
          304 vlineto
          123 120 rlineto
          endchar
        </CharString>
        <CharString name="L">
          -15 0 253 1203 -20 hstem
          -14 callgsubr
          vstem
          439 253 rmoveto
          1203 -314 -56 callsubr
          944 253 vlineto
          endchar
        </CharString>
        <CharString name="L.smcp">
          -170 0 -26 callsubr
          vstem
          398 243 rmoveto
          922 -303 -1165 827 243 vlineto
          endchar
        </CharString>
        <CharString name="M">
          670 -78 callsubr
          hstem
          -14 callgsubr
          914 315 vstem
          1668 -33 callgsubr
          -412 hlineto
          -360 -1039 -360 1039 rlineto
          -411 -46 callsubr
          376 hlineto
          -31 695 381 -1071 rlineto
          213 hlineto
          382 1071 -31 -695 rlineto
          -376 315 vlineto
          endchar
        </CharString>
        <CharString name="M.smcp">
          419 -17 callsubr
          31 callsubr
          747 304 vstem
          1449 -18 callgsubr
          -400 hlineto
          -278 -768 -278 768 rlineto
          -398 -37 callgsubr
          215 hlineto
          -31 619 304 -834 rlineto
          200 hlineto
          305 837 -31 -622 rlineto
          -215 304 vlineto
          endchar
        </CharString>
        <CharString name="N">
          320 -78 callsubr
          hstem
          -14 callgsubr
          566 -14 callsubr
          1318 hmoveto
          -43 callsubr
        </CharString>
        <CharString name="N.smcp">
          111 -17 callsubr
          31 callsubr
          442 24 callsubr
          1141 hmoveto
          -42 callgsubr
        </CharString>
        <CharString name="Ntilde">
          320 -78 callsubr
          129 -52 callsubr
          -14 callgsubr
          -93 -51 callgsubr
          -100 313 hintmask 00000000
          hintmask 11101010
          1105 1833 -90 callgsubr
          213 -1833 rmoveto
          -43 callsubr
        </CharString>
        <CharString name="Ntilde.smcp">
          111 21 -21 1285 -52 callsubr
          31 callsubr
          -154 -51 callgsubr
          -163 301 hintmask 00000000
          hintmask 11010100
          1003 1553 rmoveto
          -83 callsubr
          -45 callgsubr
          hintmask 10101010
          -95 callsubr
          hintmask 11010010
          -63 callgsubr
          hintmask 11010100
          -78 callgsubr
          hintmask 11010010
          138 -1553 rmoveto
          -42 callgsubr
        </CharString>
        <CharString name="O">
          -57 callsubr
          -41 callgsubr
          1331 696 -107 callgsubr
        </CharString>
        <CharString name="O.smcp">
          -59 callgsubr
          -57 callgsubr
          1155 561 -106 callgsubr
        </CharString>
        <CharString name="O.ss06">
          367 -21 253 991 17 callsubr
          83 313 699 -14 callsubr
          1408 707 rmoveto
          42 vlineto
          409 -273 319 -391 -389 -272 -319 -409 vhcurveto
          -42 vlineto
          -410 274 -318 389 391 271 318 410 vhcurveto
          -313 44 rmoveto
          -44 vlineto
          -261 -129 -214 -220 -220 -130 214 261 vhcurveto
          44 vlineto
          260 128 212 220 220 131 -212 -260 vhcurveto
          endchar
        </CharString>
        <CharString name="OE">
          861 -20 243 -223 253 373 245 331 254 -223 -17 callgsubr
          96 301 507 314 hintmask 01110110
          1218 253 rmoveto
          373 569 245 -569 331 668 254 -890 vlineto
          hintmask 10101110
          11 -89 -100 9 -101 hhcurveto
          -363 -247 -243 -353 hvcurveto
          -304 vlineto
          -353 249 -243 363 vhcurveto
          hintmask 01110110
          101 98 10 10 89 hvcurveto
          891 253 hlineto
          hintmask 10101110
          -1490 323 rmoveto
          306 vlineto
          235 119 116 190 69 67 -5 -8 62 vhcurveto
          -984 vlineto
          -8 -62 -66 -5 -68 hhcurveto
          -190 -121 118 235 hvcurveto
          endchar
        </CharString>
        <CharString name="Oacute">
          -57 callsubr
          59 311 -41 callgsubr
          753 1846 -92 callsubr
          252 -1150 -107 callgsubr
        </CharString>
        <CharString name="Oacute.smcp">
          -59 callgsubr
          74 311 -57 callgsubr
          652 1566 -92 callsubr
          177 -1005 -106 callgsubr
        </CharString>
        <CharString name="Ocircumflex">
          -57 callsubr
          78 12 -41 callgsubr
          1100 1566 rmoveto
          -100 callgsubr
          155 -8 callsubr
          -141 rlineto
          238 hlineto
          231 -858 -107 callgsubr
        </CharString>
        <CharString name="Ocircumflex.smcp">
          -59 callgsubr
          93 12 -57 callgsubr
          999 1286 rmoveto
          -100 callgsubr
          155 -8 callsubr
          -141 rlineto
          238 hlineto
          156 -713 -106 callgsubr
        </CharString>
        <CharString name="Odieresis">
          -57 callsubr
          70 259 -41 callgsubr
          457 1805 -103 callgsubr
          378 -1108 -107 callgsubr
        </CharString>
        <CharString name="Odieresis.smcp">
          -59 callgsubr
          85 259 -57 callgsubr
          356 1525 -103 callgsubr
          303 -963 -106 callgsubr
        </CharString>
        <CharString name="Ograve">
          -57 callsubr
          59 311 -41 callgsubr
          873 1535 -99 callsubr
          705 -839 -107 callgsubr
        </CharString>
        <CharString name="Ograve.smcp">
          -59 callgsubr
          74 311 -57 callgsubr
          772 1255 -99 callsubr
          630 -694 -106 callgsubr
        </CharString>
        <CharString name="Oslash">
          286 -20 257 981 258 hstem
          90 318 613 318 vstem
          1154 1295 rmoveto
          131 223 rlineto
          -193 hlineto
          -70 -119 rlineto
          50 -89 -104 27 -115 hhcurveto
          -368 -256 -273 -444 hvcurveto
          -63 vlineto
          -237 74 -188 124 -124 vhcurveto
          -142 -242 rlineto
          192 hlineto
          84 144 rlineto
          -45 86 99 -24 109 hhcurveto
          368 255 272 444 hvcurveto
          63 vlineto
          229 -68 183 -117 124 vhcurveto
          -746 -599 rmoveto
          65 vlineto
          298 109 159 197 67 57 -19 -36 46 vhcurveto
          -432 -737 rlineto
          -29 71 -15 91 108 vvcurveto
          613 hmoveto
          -295 -109 -164 -196 -60 -53 15 30 -43 vhcurveto
          426 727 rlineto
          23 -68 12 -82 -98 vvcurveto
          endchar
        </CharString>
        <CharString name="Oslash.smcp">
          -59 callgsubr
          36 -20 -57 callgsubr
          1009 1017 rmoveto
          145 200 rlineto
          -170 hlineto
          -82 -113 rlineto
          50 -83 -101 27 -111 hhcurveto
          -323 -224 -222 -355 hvcurveto
          -43 vlineto
          -174 54 -142 93 -100 vhcurveto
          -145 -200 rlineto
          170 hlineto
          83 114 rlineto
          -49 83 100 -26 111 hhcurveto
          320 226 221 356 hvcurveto
          43 vlineto
          173 -54 141 -92 99 vhcurveto
          -646 -456 rmoveto
          44 vlineto
          213 85 122 159 56 48 -16 -31 38 vhcurveto
          -362 -500 rlineto
          -16 47 -8 57 64 vvcurveto
          489 hmoveto
          -211 -90 -125 -153 -56 -48 16 29 -37 vhcurveto
          361 499 rlineto
          15 -46 8 -55 -63 vvcurveto
          endchar
        </CharString>
        <CharString name="Otilde">
          -57 callsubr
          89 -52 callsubr
          82 318 -74 -51 callgsubr
          -72 318 hintmask 00000000
          hintmask 11101010
          1085 1833 -90 callgsubr
          246 -1137 -107 callgsubr
        </CharString>
        <CharString name="Otilde.smcp">
          -59 callgsubr
          104 -52 callsubr
          60 303 -138 -51 callgsubr
          -132 303 hintmask 00000000
          hintmask 11101010
          984 1553 rmoveto
          -83 callsubr
          -45 callgsubr
          hintmask 11010101
          -95 callsubr
          -21 callgsubr
          hintmask 11101010
          -78 callgsubr
          hintmask 11101001
          171 -992 -106 callgsubr
        </CharString>
        <CharString name="P">
          200 21 -21 506 254 442 -26 callgsubr
          493 317 vstem
          697 -33 callgsubr
          -572 -46 callsubr
          506 258 hlineto
          345 207 182 282 281 -207 205 -345 hvcurveto
          -696 vmoveto
          -258 442 258 hlineto
          166 69 -111 -123 -121 -69 -87 -166 hvcurveto
          endchar
        </CharString>
        <CharString name="P.smcp">
          22 21 -21 377 243 302 -26 callsubr
          381 24 callsubr
          595 -18 callgsubr
          -500 -37 callgsubr
          377 197 hlineto
          301 184 155 225 236 -184 172 -301 hvcurveto
          -545 vmoveto
          -197 302 197 hlineto
          126 58 -78 -89 -77 -58 -58 -126 hvcurveto
          endchar
        </CharString>
        <CharString name="Q">
          289 -20 257 -228 -21 1230 258 hstemhm
          81 318 614 317 hintmask 01111000
          1330 696 rmoveto
          63 vlineto
          444 -257 273 -368 -367 -257 -273 -444 vhcurveto
          -63 vlineto
          hintmask 10111000
          -444 259 -272 367 36 36 3 5 34 vhcurveto
          310 -251 197 175 -238 189 rlineto
          hintmask 01111000
          155 121 93 206 268 vvcurveto
          hintmask 10111000
          -931 hmoveto
          65 vlineto
          298 109 159 197 196 112 -159 -298 vhcurveto
          -65 vlineto
          -295 -110 -164 -196 -197 -111 164 295 vhcurveto
          endchar
        </CharString>
        <CharString name="Q.smcp">
          91 -16 241 -215 -21 951 241 hstemhm
          63 301 491 302 hintmask 01111000
          1157 561 rmoveto
          43 vlineto
          355 -229 222 -319 -323 -223 -222 -355 vhcurveto
          -43 vlineto
          hintmask 10111000
          -356 225 -221 322 27 25 2 3 26 vhcurveto
          267 -207 188 162 -194 147 rlineto
          hintmask 01111000
          130 98 78 163 209 vvcurveto
          hintmask 10111000
          -793 hmoveto
          44 vlineto
          213 86 122 159 154 92 -122 -213 vhcurveto
          -44 vlineto
          -211 -90 -125 -155 -159 -87 125 211 vhcurveto
          endchar
        </CharString>
        <CharString name="Q.ss06">
          367 -21 253 -214 -21 1226 254 hstemhm
          83 313 699 313 hintmask 01111000
          1408 716 rmoveto
          23 vlineto
          432 -273 306 -391 -389 -272 -306 -432 vhcurveto
          -23 vlineto
          hintmask 10111000
          -432 274 -305 389 56 53 6 12 50 vhcurveto
          287 -250 198 175 -233 199 rlineto
          hintmask 01111000
          157 130 94 211 254 vvcurveto
          hintmask 10111000
          -1012 hmoveto
          25 vlineto
          285 128 197 220 220 131 -197 -285 vhcurveto
          -25 vlineto
          -283 -129 -201 -220 -220 -130 201 283 vhcurveto
          endchar
        </CharString>
        <CharString name="R">
          190 21 -21 526 254 422 -26 callgsubr
          464 -70 callsubr
          959 608 rmoveto
          158 71 100 122 215 vvcurveto
          287 -206 153 -336 vhcurveto
          -550 -46 callsubr
          526 228 hlineto
          267 -526 rlineto
          336 15 hlineto
          -831 1187 rmoveto
          236 hlineto
          153 75 -81 -131 -128 -76 -82 -152 hvcurveto
          -236 hlineto
          endchar
        </CharString>
        <CharString name="R.alt">
          210 0 29 533 253 387 254 hstemhm
          126 314 451 313 -298 313 hintmask 11111000
          1204 252 rmoveto
          95 vlineto
          168 -60 130 -187 53 vhcurveto
          hintmask 11110100
          162 63 100 96 170 vvcurveto
          273 -178 156 -333 vhcurveto
          -582 -46 callsubr
          562 240 hlineto
          hintmask 11111000
          145 66 -77 -140 hvcurveto
          -91 vlineto
          -42 4 -163 61 -49 vhcurveto
          323 29 hlineto
          -61 48 -14 126 49 vvcurveto
          hintmask 11110100
          -526 563 rmoveto
          -238 387 249 hlineto
          151 66 -83 -118 -119 -75 -67 -153 hvcurveto
          endchar
        </CharString>
        <CharString name="R.smcp">
          25 21 -21 396 243 283 -26 callsubr
          362 -58 callgsubr
          845 478 rmoveto
          131 60 86 89 190 vvcurveto
          229 -185 119 -289 vhcurveto
          -493 -37 callgsubr
          396 169 hlineto
          213 -396 rlineto
          325 13 hlineto
          -707 909 rmoveto
          190 hlineto
          111 61 -50 -90 -93 -58 -50 -114 hvcurveto
          -190 hlineto
          endchar
        </CharString>
        <CharString name="S">
          140 -20 248 999 249 hstemhm
          113 313 453 314 -8 callgsubr
          602 607 rmoveto
          231 -74 46 -51 -98 vvcurveto
          -88 -67 -68 -149 -170 -110 62 174 vhcurveto
          -315 hlineto
          -335 303 -149 292 322 208 148 258 242 -168 137 -316 97 vhcurveto
          -182 56 -101 56 93 vvcurveto
          88 74 72 150 156 74 -83 -118 vhcurveto
          313 hlineto
          267 -215 183 -322 -317 -226 -161 -246 -256 225 -121 264 -85 vhcurveto
          endchar
        </CharString>
        <CharString name="S.smcp">
          -22 -16 221 755 221 hstemhm
          98 285 359 286 -8 callgsubr
          527 467 rmoveto
          -28 callgsubr
          -279 259 -111 249 279 183 124 217 34 callsubr
          -25 callgsubr
          233 -201 131 -284 -259 -189 -141 -205 33 callsubr
          endchar
        </CharString>
        <CharString name="T">
          149 21 -21 1202 17 callsubr
          477 -14 callsubr
          1234 -33 callgsubr
          -1194 -254 437 -1202 313 1202 444 hlineto
          endchar
        </CharString>
        <CharString name="T.smcp">
          -13 21 -21 922 -18 callsubr
          399 304 vstem
          1079 -18 callgsubr
          -1047 -243 367 -922 304 922 376 hlineto
          endchar
        </CharString>
        <CharString name="Thorn">
          127 21 -21 284 243 422 244 263 -20 hstem
          129 302 457 -58 callgsubr
          648 1193 rmoveto
          -217 263 -302 -56 callsubr
          302 284 217 hlineto
          351 191 190 264 265 -191 190 -351 hvcurveto
          -666 vmoveto
          -217 422 217 hlineto
          172 68 -102 -111 -109 -68 -100 -172 hvcurveto
          endchar
        </CharString>
        <CharString name="Thorn.smcp">
          -78 21 -21 218 244 301 -32 callgsubr
          31 callsubr
          306 24 callsubr
          520 1007 rmoveto
          -122 158 -303 -37 callgsubr
          218 122 hlineto
          301 184 162 235 226 -184 166 -301 hvcurveto
          -545 vmoveto
          -122 301 122 hlineto
          126 58 -70 -80 -86 -58 -65 -126 hvcurveto
          endchar
        </CharString>
        <CharString name="U">
          -41 callsubr
          -52 callgsubr
          1238 1456 -97 callsubr
        </CharString>
        <CharString name="U.smcp">
          45 -16 243 32 callgsubr
          1078 1165 -96 callgsubr
        </CharString>
        <CharString name="Uacute">
          -41 callsubr
          99 311 -52 callgsubr
          719 1846 -92 callsubr
          193 -390 -97 callsubr
        </CharString>
        <CharString name="Uacute.smcp">
          -13 callsubr
          627 1566 -92 callsubr
          125 -401 -96 callgsubr
        </CharString>
        <CharString name="Ucircumflex">
          -41 callsubr
          118 12 -52 callgsubr
          1066 1566 rmoveto
          -100 callgsubr
          155 -8 callsubr
          -141 rlineto
          238 hlineto
          172 -98 -97 callsubr
        </CharString>
        <CharString name="Ucircumflex.smcp">
          45 18 callgsubr
          1047 12 32 callgsubr
          974 1286 rmoveto
          -100 callgsubr
          155 -8 callsubr
          -141 rlineto
          238 hlineto
          104 -109 -96 callgsubr
        </CharString>
        <CharString name="Udieresis">
          -41 callsubr
          110 259 -52 callgsubr
          423 1805 -103 callgsubr
          319 -348 -97 callsubr
        </CharString>
        <CharString name="Udieresis.smcp">
          45 18 callgsubr
          1039 259 32 callgsubr
          331 1525 -103 callgsubr
          251 -359 -96 callgsubr
        </CharString>
        <CharString name="Ugrave">
          -41 callsubr
          99 311 -52 callgsubr
          839 1535 -99 callsubr
          646 -79 -97 callsubr
        </CharString>
        <CharString name="Ugrave.smcp">
          -13 callsubr
          747 1255 -99 callsubr
          578 -90 -96 callgsubr
        </CharString>
        <CharString name="V">
          218 -78 callsubr
          hstem
          5 1335 vstem
          990 -33 callgsubr
          -319 -1083 -319 1083 rlineto
          -347 hlineto
          500 -56 callsubr
          rlineto
          331 hlineto
          504 -73 callsubr
          rlineto
          endchar
        </CharString>
        <CharString name="V.smcp">
          39 -17 callsubr
          -4 1172 vstem
          851 -18 callgsubr
          -262 -846 -8 -43 -10 47 -259 842 rlineto
          -316 hlineto
          420 -1165 rlineto
          330 hlineto
          422 -40 callgsubr
          rlineto
          endchar
        </CharString>
        <CharString name="W">
          664 -78 callsubr
          hstem
          32 1726 vstem
          1446 -33 callgsubr
          -188 -1011 -230 1011 rlineto
          -266 hlineto
          -228 -1012 -190 1012 rlineto
          -312 hlineto
          320 -56 callsubr
          rlineto
          318 hlineto
          225 945 226 -945 rlineto
          318 hlineto
          319 -73 callsubr
          rlineto
          endchar
        </CharString>
        <CharString name="W.smcp">
          406 -17 callsubr
          29 1468 vstem
          31 callgsubr
          -18 callgsubr
          -141 -768 -172 768 rlineto
          -265 hlineto
          -170 -772 -141 772 rlineto
          -290 24 callgsubr
          -1165 rlineto
          303 hlineto
          163 706 168 -706 rlineto
          303 hlineto
          265 -40 callgsubr
          rlineto
          endchar
        </CharString>
        <CharString name="X">
          179 -78 callsubr
          hstem
          18 1268 vstem
          652 961 rmoveto
          -263 495 rlineto
          -360 hlineto
          419 -722 -430 -734 rlineto
          363 hlineto
          271 504 271 -504 rlineto
          363 hlineto
          -430 734 419 722 rlineto
          -359 hlineto
          endchar
        </CharString>
        <CharString name="X.smcp">
          1 -17 callsubr
          -1 1123 vstem
          548 797 rmoveto
          -194 368 rlineto
          -346 hlineto
          354 -578 -363 -587 rlineto
          348 hlineto
          204 375 214 -375 rlineto
          357 hlineto
          -383 587 352 578 rlineto
          -347 hlineto
          endchar
        </CharString>
        <CharString name="Y">
          147 -78 callsubr
          hstem
          477 318 vstem
          636 809 -44 callgsubr
        </CharString>
        <CharString name="Y.smcp">
          -18 -17 callsubr
          399 -58 callgsubr
          1110 1165 -43 callgsubr
        </CharString>
        <CharString name="Yacute">
          147 -78 callsubr
          99 -33 callsubr
          477 318 vstem
          684 1846 -92 callsubr
          -374 -1037 -44 callgsubr
        </CharString>
        <CharString name="Yacute.smcp">
          -18 21 -21 1255 -33 callsubr
          399 -58 callgsubr
          914 1566 -85 callgsubr
          474 -90 -43 callgsubr
        </CharString>
        <CharString name="Z">
          119 41 callgsubr
          71 1116 vstem
          467 253 rmoveto
          707 1028 rlineto
          175 -1103 -254 712 vlineto
          -711 -1022 rlineto
          -180 1115 253 vlineto
          endchar
        </CharString>
        <CharString name="Z.smcp">
          -50 0 243 679 -18 callsubr
          53 980 vstem
          457 243 rmoveto
          570 770 rlineto
          152 -974 -243 581 vlineto
          -577 -766 rlineto
          -156 976 243 vlineto
          endchar
        </CharString>
        <CharString name="a">
          -87 callgsubr
          -38 callsubr
          hintmask 00111110
          989 267 rmoveto
          453 vlineto
          254 -186 128 -252 -282 -182 -154 -193 -45 callsubr
          80 55 45 91 105 47 -62 -96 vhcurveto
          -61 -123 vlineto
          -334 -167 -131 -225 hvcurveto
          hintmask 01011110
          -190 162 -135 205 129 85 52 65 57 vhcurveto
          hintmask 00111110
          6 -37 10 -34 13 -26 rrcurveto
          303 17 hlineto
          -28 55 -16 66 129 vvcurveto
          hintmask 10011110
          -491 -58 rmoveto
          -82 -52 48 67 91 61 73 147 hvcurveto
          115 -181 hlineto
          -50 -28 -68 -48 -93 hhcurveto
          endchar
        </CharString>
        <CharString name="aacute">
          -87 callgsubr
          123 311 -38 callsubr
          hintmask 00111111
          920 19 callgsubr
          -85 callgsubr
          347 -958 -106 callsubr
        </CharString>
        <CharString name="acircumflex">
          -87 callgsubr
          142 12 -38 callsubr
          hintmask 00111111
          547 1385 rmoveto
          156 -141 rlineto
          238 12 hlineto
          -100 callgsubr
          597 -977 -106 callsubr
        </CharString>
        <CharString name="acute">
          -442 6 callsubr
          99 522 vstem
          295 19 callgsubr
          rmoveto
          -196 -311 rlineto
          245 hlineto
          277 311 rlineto
          endchar
        </CharString>
        <CharString name="acutecomb">
          -1125 6 callsubr
          -685 523 vstem
          -488 19 callgsubr
          -92 callsubr
          endchar
        </CharString>
        <CharString name="adieresis">
          -87 callgsubr
          134 259 -38 callsubr
          hintmask 00111111
          298 1236 -103 callsubr
          195 -969 -106 callsubr
        </CharString>
        <CharString name="ae">
          605 -20 220 -220 243 221 201 -188 195 207 -17 callgsubr
          65 302 1017 295 hintmask 00000000
          hintmask 10101010
          1679 612 rmoveto
          301 -170 189 -285 vhcurveto
          -134 1 -108 -38 -82 -67 rrcurveto
          69 -77 -112 35 -136 hhcurveto
          -287 -187 -143 -197 hvcurveto
          301 -19 rlineto
          64 62 52 108 98 54 -59 -96 vhcurveto
          hintmask 10011100
          -52 -157 vlineto
          -329 -173 -120 -211 -207 144 -134 262 189 127 68 76 73 hvcurveto
          -91 88 130 -53 167 hhcurveto
          182 150 63 58 72 hvcurveto
          hintmask 01101010
          -78 196 rlineto
          -39 -78 -77 -35 -137 hhcurveto
          -167 -78 93 128 -14 hvcurveto
          659 hlineto
          -295 201 rmoveto
          -362 hlineto
          127 16 59 87 127 hhcurveto
          109 51 -74 -113 hvcurveto
          hintmask 10011100
          -1017 -355 rmoveto
          73 70 67 132 vhcurveto
          155 -183 hlineto
          -40 -49 -78 -34 -68 hhcurveto
          -111 -51 46 71 hvcurveto
          endchar
        </CharString>
        <CharString name="agrave">
          -87 callgsubr
          123 311 -38 callsubr
          hintmask 00111111
          714 12 callsubr
          -99 callsubr
          522 -958 -106 callsubr
        </CharString>
        <CharString name="alpha">
          29 -20 243 -223 -21 22 -21 879 -17 callgsubr
          71 302 359 302 hintmask 00111100
          1125 230 rmoveto
          -2 -5 -6 -1 -9 hhcurveto
          -45 -26 32 99 hvcurveto
          724 -262 vlineto
          -22 -128 rlineto
          92 -59 -83 56 -114 hhcurveto
          -275 -148 -235 -331 hvcurveto
          -21 vlineto
          -313 148 -222 273 126 88 64 103 61 vhcurveto
          hintmask 01011100
          -115 48 87 -53 122 hhcurveto
          46 36 3 20 44 hvcurveto
          hintmask 10011100
          -582 221 rmoveto
          -146 -49 124 14 callsubr
          77 51 -34 -61 34 vhcurveto
          -456 vlineto
          -54 -34 -51 -31 -79 hhcurveto
          endchar
        </CharString>
        <CharString name="alpha.alt">
          68 -21 243 -201 -21 859 -17 callgsubr
          71 302 hintmask 01110000
          1117 hmoveto
          -115 540 108 542 rlineto
          -264 hlineto
          -23 -162 rlineto
          112 -68 -99 70 -146 hhcurveto
          -285 -154 -235 -331 hvcurveto
          -21 vlineto
          hintmask 10110000
          -313 154 -223 283 151 101 69 112 68 vhcurveto
          hintmask 01110000
          25 -160 rlineto
          -85 490 rmoveto
          hintmask 10110000
          -139 -7 -53 -129 -140 hhcurveto
          -146 -49 125 14 callsubr
          138 55 -141 -157 5 vhcurveto
          endchar
        </CharString>
        <CharString name="ampersand">
          229 -21 244 -202 -21 1234 -17 callgsubr
          68 302 -302 1260 -1134 267 259 249 16 255 hintmask 01101000
          1328 hmoveto
          -219 254 rlineto
          hintmask 01100001
          94 126 37 160 179 vvcurveto
          -255 hlineto
          -95 -22 -86 -37 -72 vhcurveto
          -243 281 91 65 rlineto
          hintmask 01100110
          113 81 82 106 134 vvcurveto
          186 -146 158 -228 -243 -158 -157 -230 -110 51 -97 84 -115 vhcurveto
          hintmask 10110000
          -154 -109 -107 -98 -169 vvcurveto
          -241 182 -172 293 144 116 34 71 111 vhcurveto
          hintmask 01100110
          73 -84 rlineto
          -393 1234 rmoveto
          80 46 -62 -59 -54 -17 -47 -83 -53 hvcurveto
          -74 -48 rlineto
          -51 66 -34 59 58 vvcurveto
          77 45 63 88 vhcurveto
          hintmask 10110000
          -34 -1011 rmoveto
          -112 -78 78 110 56 14 55 67 60 hvcurveto
          18 13 278 -320 rlineto
          -34 -58 -64 -18 -65 hhcurveto
          endchar
        </CharString>
        <CharString name="ampersand.smcp">
          222 -20 241 -200 -21 954 227 hstemhm
          84 1172 -1077 257 214 260 hintmask 01110000
          1256 hmoveto
          -198 197 rlineto
          76 88 50 116 160 vvcurveto
          -256 hlineto
          -71 -17 -63 -33 -52 vhcurveto
          -200 198 54 35 rlineto
          hintmask 10101100
          103 66 75 90 110 vvcurveto
          188 -144 119 -227 -230 -130 -139 -150 -118 54 -75 87 -91 vhcurveto
          -24 -15 rlineto
          -131 -82 -81 -80 -134 vvcurveto
          -184 174 -133 279 120 117 24 51 101 vhcurveto
          hintmask 01101100
          55 -55 rlineto
          -494 861 rmoveto
          50 36 43 71 68 39 -41 -40 -39 -13 -28 -82 -50 vhcurveto
          -38 -24 rlineto
          -48 48 -33 39 42 vvcurveto
          hintmask 10110000
          104 -640 rmoveto
          -97 -57 41 67 31 14 37 55 35 hvcurveto
          25 16 209 -208 rlineto
          -12 -44 -50 -7 -55 hhcurveto
          endchar
        </CharString>
        <CharString name="aring">
          -87 callgsubr
          117 95 214 96 hstemhm
          63 301 -38 4 callsubr
          -85 302 hintmask 0011111011000000
          549 1219 -87 callsubr
          hintmask 0101111100100000
          440 -1261 rmoveto
          453 vlineto
          254 -186 128 -252 -282 -182 -154 -193 -45 callsubr
          80 55 45 91 105 47 -62 -96 vhcurveto
          -61 -123 vlineto
          -334 -167 -131 -225 -190 162 -135 205 129 85 52 65 57 hvcurveto
          hintmask 0011111010100000
          6 -37 10 -34 13 -26 rrcurveto
          303 17 hlineto
          hintmask 0101111100100000
          -28 55 -16 66 129 vvcurveto
          hintmask 1001111100100000
          -491 -58 rmoveto
          -82 -52 48 67 91 61 73 147 hvcurveto
          115 -181 hlineto
          -50 -28 -68 -48 -93 hhcurveto
          endchar
        </CharString>
        <CharString name="asciicircum">
          -224 8 callgsubr
          43 818 vstem
          861 729 rmoveto
          -299 727 rlineto
          -220 hlineto
          -299 -727 rlineto
          236 hlineto
          173 455 173 -455 rlineto
          endchar
        </CharString>
        <CharString name="asciitilde">
          195 372 247 -33 245 hstemhm
          103 221 671 220 hintmask 00000000
          hintmask 10110000
          1215 796 rmoveto
          -220 1 rlineto
          -101 -53 -77 -77 -51 -46 27 54 -55 vhcurveto
          hintmask 01110000
          87 -88 -84 44 -106 hhcurveto
          -196 -136 -156 -262 hvcurveto
          221 -3 rlineto
          100 51 76 76 54 45 -29 -53 55 vhcurveto
          hintmask 10110000
          -91 95 75 -41 107 hhcurveto
          195 138 165 259 hvcurveto
          endchar
        </CharString>
        <CharString name="asterisk">
          -190 1224 -20 252 -20 hstem
          390.5 179 vstem
          345 960 rmoveto
          -220 -272 163 -110 181 283 183 -293 162 115 -212 266 322 89 -60 186 -305 -125 21 357 rlineto
          -200 hlineto
          21 -350 -313 128 -61 -184 rlineto
          endchar
        </CharString>
        <CharString name="at">
          709 -453 180 252 167 -164 184 642 182 258 166 hstemhm
          80 202 229.97 230.24 821.79 185 hintmask 11011111
          964 1414 rmoveto
          -523 -337 -406 -547 -24 hvcurveto
          -595 -22 302 -319 531 hhcurveto
          124 156 29 60 93 hvcurveto
          -38 158 rlineto
          -38 -84 -131 -29 -116 hhcurveto
          -408 -227 251 483 22 hvcurveto
          450 21 249 337 408 hhcurveto
          434 191 -284 -430 -21 hvcurveto
          -220 -7 -85 -168 -126 hhcurveto
          -56 -61 29 125 14 hvcurveto
          52 581 rlineto
          57 -81 -74 52 -155 hhcurveto
          -239 -193 -218 -339 -38 hvcurveto
          hintmask 10111111
          -272 -25 119 -179 195 hhcurveto
          106 90 47 92 66 hvcurveto
          hintmask 11011111
          -90 43 86 -52 113 hhcurveto
          307 124 286 277 10 hvcurveto
          521 22 -284 351 -523 hhcurveto
          hintmask 10111111
          -89 -1248 rmoveto
          -99 -46 93 174 15 hvcurveto
          244 25 79 131 155 hhcurveto
          28 25 -4 -7 23 hvcurveto
          -41 -464 rlineto
          -134 -46 -71 -33 -47 hhcurveto
          endchar
        </CharString>
        <CharString name="atilde">
          -87 callgsubr
          153 -52 callsubr
          63 301 -197 173 347 302 -235 172 hintmask 0011001011000000
          422 1340 rmoveto
          hintmask 0011010010100000
          -82 callsubr
          hintmask 0011001011000000
          -45 callgsubr
          -95 callsubr
          567 -1073 rmoveto
          453 vlineto
          hintmask 0101101101000000
          254 -186 128 -252 -282 -182 -154 -193 -45 callsubr
          80 55 45 91 105 47 -62 -96 vhcurveto
          -61 -123 vlineto
          -334 -167 -131 -225 -190 162 -135 205 129 85 52 65 57 hvcurveto
          hintmask 0011001011000000
          6 -37 10 -34 13 -26 rrcurveto
          303 17 hlineto
          -28 55 -16 66 129 vvcurveto
          hintmask 1001001101000000
          -491 -58 rmoveto
          -82 -52 48 67 91 61 73 147 hvcurveto
          115 -181 hlineto
          -50 -28 -68 -48 -93 hhcurveto
          endchar
        </CharString>
        <CharString name="b">
          28 -54 callgsubr
          108 302 378 -32 callsubr
          271 vlineto
          14 115 rlineto
          hintmask 01011100
          -85 65 89 -50 122 hhcurveto
          284 137 227 325 hvcurveto
          21 vlineto
          hintmask 00111100
          319 -137 230 -286 vhcurveto
          121 -570 rmoveto
          hintmask 10011100
          -180 -36 -128 -159 -94 -57 38 67 -32 vhcurveto
          424 vlineto
          66 32 56 39 93 hhcurveto
          159 38 -140 -165 hvcurveto
          endchar
        </CharString>
        <CharString name="b.ss06">
          46 -54 callgsubr
          108 302 398 -32 callsubr
          261 vlineto
          19 121 rlineto
          hintmask 01011100
          -88 65 91 -53 125 hhcurveto
          284 157 234 315 hvcurveto
          21 vlineto
          hintmask 00111100
          329 -157 223 -286 vhcurveto
          141 -573 rmoveto
          hintmask 10011100
          -170 -56 -135 -159 -89 -59 36 59 -35 vhcurveto
          445 vlineto
          61 35 59 33 87 hhcurveto
          157 60 -132 -176 hvcurveto
          endchar
        </CharString>
        <CharString name="backslash">
          -258 8 callgsubr
          -5 918 vstem
          -5 -33 callgsubr
          607 -1581 rlineto
          311 hlineto
          -608 1581 rlineto
          endchar
        </CharString>
        <CharString name="bar">
          -605 8 callgsubr
          173 178 vstem
          351 -270 rmoveto
          1726 -178 -1726 vlineto
          endchar
        </CharString>
        <CharString name="braceleft">
          -451 -360 1957 -1086 215 hstemhm
          220 269 hintmask 10100000
          489 106 rmoveto
          203 vlineto
          132 -55 115 -125 63 vhcurveto
          125 63 55 115 132 vvcurveto
          203 vlineto
          140 32 116 117 42 vhcurveto
          -58 167 rlineto
          -275 -77 -85 -178 -210 vvcurveto
          -203 vlineto
          hintmask 01100000
          -124 -51 -79 -123 vhcurveto
          -215 vlineto
          123 51 -79 -123 hvcurveto
          -203 vlineto
          -210 85 -179 275 -77 vhcurveto
          58 168 rlineto
          hintmask 10100000
          -117 42 -32 116 140 vvcurveto
          endchar
        </CharString>
        <CharString name="braceright">
          -451 511 215 hstemhm
          186 268 hintmask 00000000
          hintmask 11000000
          454 929 rmoveto
          203 vlineto
          210 -85 178 -275 77 vhcurveto
          -58 -167 rlineto
          117 -42 33 -116 -140 vvcurveto
          -203 vlineto
          -134 56 -114 129 -62 vhcurveto
          -129 -62 -56 -114 -134 vvcurveto
          -203 vlineto
          -140 -33 -116 -117 -42 vhcurveto
          58 -168 rlineto
          275 77 85 179 210 vvcurveto
          203 vlineto
          123 51 79 123 vhcurveto
          215 vlineto
          -123 -51 79 124 hvcurveto
          endchar
        </CharString>
        <CharString name="bracketleft">
          13 callsubr
          117 -49 callsubr
          556 1467 rmoveto
          232 -439 -2042 439 231 -136 1579 vlineto
          endchar
        </CharString>
        <CharString name="bracketright">
          13 callsubr
          151 -58 callgsubr
          14 1699 rmoveto
          -232 137 -1579 -137 -231 439 2042 vlineto
          endchar
        </CharString>
        <CharString name="brokenbar">
          -606 8 callgsubr
          126 268 vstem
          394 698 rmoveto
          758 -268 -758 vlineto
          -968 vmoveto
          268 795 -268 hlineto
          endchar
        </CharString>
        <CharString name="bullet">
          -383 496 504 hstem
          135 484 vstem
          135 765 rmoveto
          -37 vlineto
          -137 95 -95 148 149 92 95 137 vhcurveto
          37 vlineto
          137 -92 98 -151 -146 -95 -98 -137 vhcurveto
          endchar
        </CharString>
        <CharString name="c">
          -57 4 callgsubr
          63 -58 callgsubr
          732 379 rmoveto
          28 callgsubr
          -72 callgsubr
          266 -1 -184 161 -267 hhcurveto
          -334 -166 -239 -309 hvcurveto
          -26 vlineto
          -309 166 -239 336 252 197 164 235 1 vhcurveto
          endchar
        </CharString>
        <CharString name="c.ss06">
          -27 4 callgsubr
          65 -58 callgsubr
          760 379 rmoveto
          -96 -4 -75 -60 -103 hhcurveto
          -163 -48 141 164 hvcurveto
          26 vlineto
          160 49 145 160 115 65 -82 -102 4 vhcurveto
          283 24 callgsubr
          -8 -186 161 -267 hhcurveto
          -334 -183 -239 -309 hvcurveto
          -26 vlineto
          -309 183 -239 336 253 198 164 235 8 vhcurveto
          endchar
        </CharString>
        <CharString name="ccedilla">
          -57 -468 174 305 -21 22 -21 868 -17 callgsubr
          17 callgsubr
          193 256 hintmask 10111100
          559 223 rmoveto
          -72 callgsubr
          266 -1 -184 161 -267 hhcurveto
          -334 -166 -239 -309 hvcurveto
          -26 vlineto
          -270 126 -216 256 -51 vhcurveto
          -28 -129 rlineto
          -79 callgsubr
          hvcurveto
          hintmask 11011100
          5 callsubr
          vhcurveto
          8 43 199 40 143 149 1 200 rlinecurve
          -283 hlineto
          hintmask 10111100
          28 callgsubr
          endchar
        </CharString>
        <CharString name="cedilla">
          -571 -466 174 241 59 hstemhm
          95 397 -256 256 hintmask 11100000
          353 8 rmoveto
          -227 hlineto
          -31 -144 rlineto
          hintmask 11010000
          -79 callgsubr
          5 callsubr
          hvcurveto
          endchar
        </CharString>
        <CharString name="cent">
          62 9 -21 22 -21 hstemhm
          100 302 100 200 hintmask 01110000
          596 223 rmoveto
          -72 callgsubr
          -1 231 -138 151 -211 37 rrcurveto
          224 -200 -223 vlineto
          -268 -43 -134 -221 -277 vvcurveto
          -26 vlineto
          hintmask 10110000
          -277 133 -220 269 -43 vhcurveto
          -233 200 vlineto
          hintmask 01110000
          234 vlineto
          202 37 147 150 1 203 rrcurveto
          -283 hlineto
          28 callgsubr
          endchar
        </CharString>
        <CharString name="circumflex">
          -104 1244 12 hstem
          117 784 vstem
          901 1256 rmoveto
          -100 callgsubr
          155 -8 callsubr
          -141 rlineto
          238 hlineto
          endchar
        </CharString>
        <CharString name="colon">
          -537 10 -21 hstem
          123 339 vstem
          292 1120 rmoveto
          -91 callsubr
          -811 vmoveto
          -91 callsubr
          endchar
        </CharString>
        <CharString name="comma">
          -611 -376 625 hstem
          143 250 vstem
          393 46 -48 callgsubr
        </CharString>
        <CharString name="copyright">
          482 -20 125 177 135 623 135 176 125 hstem
          86 122 225 155 373 156 266 123 vstem
          -84 callgsubr
          321 491 rmoveto
          -156 hlineto
          -130 -61 -49 -118 -128 -66 103 149 vhcurveto
          120 vlineto
          147 66 104 128 118 62 -51 -128 vhcurveto
          156 hlineto
          209 -130 105 -206 -215 -134 -158 -229 vhcurveto
          -119 vlineto
          -230 134 -157 215 206 129 104 210 vhcurveto
          endchar
        </CharString>
        <CharString name="crossbar">
          -140 650 186 hstem
          140 708 vstem
          848 650 rmoveto
          186 -708 -186 vlineto
          endchar
        </CharString>
        <CharString name="currency">
          288 -20 191 873 190 hstem
          113 186 819 185 vstem
          1303 608 rmoveto
          137 -39 124 -67 101 vhcurveto
          147 150 -142 145 -144 -148 rlineto
          74 -98 -121 43 -130 hhcurveto
          -130 -120 -42 -73 -98 hvcurveto
          -142 145 -141 -144 144 -147 rlineto
          -69 -102 -40 -125 -138 vvcurveto
          -132 37 -121 64 -99 vhcurveto
          -136 -138 141 -144 129 132 rlineto
          -80 100 125 -46 136 hhcurveto
          136 125 47 81 101 hvcurveto
          131 -135 142 145 -139 141 rlineto
          62 99 36 120 130 vvcurveto
          -594 -437 rmoveto
          -228 -182 191 246 246 182 190 228 226 183 -190 -246 -246 -183 -191 -226 hvcurveto
          endchar
        </CharString>
        <CharString name="d">
          29 -54 callgsubr
          17 callgsubr
          378 302 hintmask 00111100
          743 -9 callgsubr
          -152 -224 -329 hvcurveto
          -21 vlineto
          hintmask 01011100
          -315 152 -233 269 119 89 51 85 67 vhcurveto
          hintmask 00111100
          14 -116 rlineto
          272 -1 callgsubr
          -50 134 -19 callsubr
          175 53 134 145 87 59 -38 -70 34 vhcurveto
          -417 vlineto
          -68 -34 -59 -41 -89 hhcurveto
          endchar
        </CharString>
        <CharString name="d.ss06">
          51 -54 callgsubr
          65 28 callsubr
          hintmask 00111100
          765 -9 callgsubr
          -172 -222 -329 hvcurveto
          -21 vlineto
          hintmask 01011100
          -315 172 -235 269 121 91 54 88 67 vhcurveto
          hintmask 00111100
          20 -122 rlineto
          262 -1 callgsubr
          -70 136 -19 callsubr
          176 74 131 144 83 60 -34 -63 37 vhcurveto
          -437 vlineto
          -63 -37 -60 -37 -85 hhcurveto
          endchar
        </CharString>
        <CharString name="degree">
          -324 925 149 252 150 hstem
          126 149 247 149 vstem
          401 1476 rmoveto
          -150 -125 -125 -153 -152 125 -121 150 148 122 121 152 153 -122 125 -148 hvcurveto
          -402 vmoveto
          -68 -58 53 71 73 58 55 68 68 53 -55 -73 -71 -53 -53 -68 hvcurveto
          endchar
        </CharString>
        <CharString name="dieresis">
          -154 1236 259 hstem
          95 779 vstem
          236 1495 -103 callgsubr
          endchar
        </CharString>
        <CharString name="divide">
          43 568 236 hstem
          63 1032 vstem
          579 1245 rmoveto
          -102 -67 -66 -91 -90 67 -65 102 103 67 65 90 91 -67 66 -103 hvcurveto
          516 -677 rmoveto
          236 -1032 -236 vlineto
          516 -134 rmoveto
          -102 -67 -65 -91 -91 67 -65 102 103 67 65 91 91 -67 65 -103 hvcurveto
          endchar
        </CharString>
        <CharString name="dollar">
          53 4 -21 1488 -20 23 -20 hstemhm
          90 302 -248 302 80 159 -139 159 78 301 hintmask 10101011
          647 858 rmoveto
          -154 62 -47 53 95 vvcurveto
          94 49 74 115 104 71 -73 -157 vhcurveto
          301 hlineto
          hintmask 11001011
          264 -149 167 -232 34 vhcurveto
          216 -159 vlineto
          hintmask 10101011
          -213 vlineto
          -242 -24 -160 -153 -227 vvcurveto
          -266 178 -100 262 -102 vhcurveto
          145 -56 54 -51 -110 vvcurveto
          -94 -59 -71 -120 vhcurveto
          hintmask 10110101
          -107 -105 56 185 hvcurveto
          -302 hlineto
          -323 213 -131 223 -24 vhcurveto
          -199 159 199 vlineto
          241 26 158 143 235 vvcurveto
          hintmask 10101011
          263 -179 103 -258 105 vhcurveto
          endchar
        </CharString>
        <CharString name="dollar.smcp">
          -22 9 -21 hstem
          98 285 105 160 94 286 vstem
          589 711 rmoveto
          -25 callgsubr
          204 -154 126 -229 28 vhcurveto
          220 -160 -216 vlineto
          -229 -20 -161 -135 -189 vvcurveto
          33 callsubr
          -28 callgsubr
          -250 208 -115 222 -21 vhcurveto
          -225 160 225 vlineto
          232 22 148 120 195 vvcurveto
          34 callsubr
          endchar
        </CharString>
        <CharString name="dotlessi">
          -558 -17 callsubr
          131 -49 callsubr
          434 hmoveto
          -49 callgsubr
        </CharString>
        <CharString name="e">
          -72 callsubr
          hstemhm
          764 296 -8 callgsubr
          1060 571 -105 callgsubr
        </CharString>
        <CharString name="e.ss07">
          -72 callsubr
          hstemhm
          764 296 -8 callgsubr
          1060 578 rmoveto
          318 -170 206 -311 -320 -189 -235 -320 vhcurveto
          -39 vlineto
          -297 213 -231 344 177 134 52 50 75 vhcurveto
          -55 211 rlineto
          -40 -73 -116 -30 -98 hhcurveto
          -181 -92 87 133 -21 hvcurveto
          683 hlineto
          -296 202 rmoveto
          -385 hlineto
          126 19 60 88 121 hhcurveto
          132 53 -76 -112 hvcurveto
          endchar
        </CharString>
        <CharString name="eacute">
          -72 callsubr
          124 311 -20 callgsubr
          hintmask 11111000
          915 1537 -85 callgsubr
          hintmask 11110100
          423 -655 -105 callgsubr
        </CharString>
        <CharString name="ecircumflex">
          -72 callsubr
          143 12 -20 callgsubr
          hintmask 11011000
          542 1386 rmoveto
          156 -141 rlineto
          238 12 hlineto
          -100 callgsubr
          hintmask 11110100
          673 -674 -105 callgsubr
        </CharString>
        <CharString name="edieresis">
          -72 callsubr
          135 259 -20 callgsubr
          hintmask 11111000
          293 1237 -103 callsubr
          hintmask 11110100
          271 -666 -105 callgsubr
        </CharString>
        <CharString name="egrave">
          -72 callsubr
          124 311 -20 callgsubr
          hintmask 11111000
          709 1226 -99 callsubr
          hintmask 11110100
          598 -655 -105 callgsubr
        </CharString>
        <CharString name="eight">
          -97 callgsubr
        </CharString>
        <CharString name="eight.frac">
          653 -86 callsubr
          1071 -105 callsubr
        </CharString>
        <CharString name="eight.smcp">
          -58 18 callgsubr
          712 -17 callgsubr
          76 303 310 302 -8 callgsubr
          799 600 rmoveto
          103 53 61 86 112 vvcurveto
          217 -178 114 -253 -248 -180 -114 -217 -111 62 -87 103 -52 vhcurveto
          -118 -54 -75 -95 -130 vvcurveto
          -227 198 -111 260 264 193 111 227 129 -74 95 -118 54 vhcurveto
          -267 339 rmoveto
          86 43 -39 -69 -68 -41 -47 -86 -83 -45 47 68 68 45 40 81 hvcurveto
          2 -712 rmoveto
          -92 -63 48 77 81 63 39 90 93 64 -39 -81 -77 -62 -48 -93 hvcurveto
          endchar
        </CharString>
        <CharString name="eight.sup">
          -11 -86 callsubr
          407 -105 callsubr
        </CharString>
        <CharString name="eight.tnum">
          -97 callgsubr
        </CharString>
        <CharString name="ellipsis">
          409 -11 320 hstemhm
          132 1287 hintmask 00000000
          hintmask 11000000
          301 309 rmoveto
          -91 callsubr
          478 hmoveto
          -91 callsubr
          470 hmoveto
          -91 callsubr
          endchar
        </CharString>
        <CharString name="emdash">
          432 589 247 hstem
          102 1389 vstem
          1491 589 rmoveto
          247 -1389 -247 vlineto
          endchar
        </CharString>
        <CharString name="endash">
          162 589 247 hstem
          150 1041 vstem
          1191 589 rmoveto
          247 -1041 -247 vlineto
          endchar
        </CharString>
        <CharString name="equal">
          55 302 245 190 245 hstem
          135 902 vstem
          1037 737 39 callgsubr
          902 -435 39 callgsubr
          endchar
        </CharString>
        <CharString name="eth">
          51 -20 243 514 227 hstem
          79 302 427 -49 callsubr
          854 1306 rmoveto
          135 85 -77 116 -169 -106 -117 85 -142 61 -157 32 rlinecurve
          -95 -231 90 -23 88 -35 80 -49 rlinecurve
          -147 -93 78 -116 187 118 72 -68 57 -85 35 -104 rlinecurve
          45 -67 -82 26 -91 hhcurveto
          -288 -165 -198 -298 -272 204 -216 303 302 223 245 358 hvcurveto
          70 vlineto
          267 -96 223 -161 163 vhcurveto
          -46 -756 rmoveto
          -187 -74 -140 -144 -132 -77 108 137 166 73 103 145 103 69 -35 -42 37 vhcurveto
          -5 vlineto
          endchar
        </CharString>
        <CharString name="exclam">
          -565 4 -21 1473 -20 hstem
          145 285 vstem
          412 453 rmoveto
          36 1003 rlineto
          -321 hlineto
          36 -1003 rlineto
          124 -152 rmoveto
          3 callgsubr
          102 67 69 90 90 -67 69 -102 hvcurveto
          endchar
        </CharString>
        <CharString name="exclamdown">
          -537 -370 1472 hstem
          153 285 vstem
          296 784 rmoveto
          3 callsubr
          37 callgsubr
          -90 -90 67 -69 102 hvcurveto
          -125 -151 rmoveto
          -36 -1003 rlineto
          321 hlineto
          -36 1003 rlineto
          endchar
        </CharString>
        <CharString name="f">
          -388 -62 callgsubr
          vstem
          648 1313 rmoveto
          7 callgsubr
          hvcurveto
          -88 callsubr
          214 220 -214 29 callgsubr
          vhcurveto
          endchar
        </CharString>
        <CharString name="f_f">
          349 -62 callgsubr
          435 -58 callgsubr
          185 1174 rmoveto
          -92 -160 -220 160 -862 302 862 214 220 -214 29 callgsubr
          7 callgsubr
          vhcurveto
          2 233 rlineto
          12 -47 -50 8 -54 hhcurveto
          -246 -155 -135 -248 hvcurveto
          1200 139 rmoveto
          7 callgsubr
          hvcurveto
          -88 callsubr
          214 220 -214 29 callgsubr
          vhcurveto
          endchar
        </CharString>
        <CharString name="f_f_i">
          797 21 -21 862 220 212 263 -244 244 hstemhm
          185 302 353 303 352 303 hintmask 11101110
          1143 1121 rmoveto
          113 68 -5 callsubr
          -115 -104 24 -116 21 callsubr
          -353 92 vlineto
          hintmask 11011110
          89 58 50 103 7 callgsubr
          vhcurveto
          -88 callsubr
          353 -862 303 862 212 220 -212 vlineto
          352 hmoveto
          -1082 303 1082 vlineto
          endchar
        </CharString>
        <CharString name="f_f_l">
          797 -62 callgsubr
          353 303 352 -49 callsubr
          1296 -1 callsubr
          -353 29 callgsubr
          7 callgsubr
          vhcurveto
          -88 callsubr
          353 -862 303 862 214 220 -214 75 vlineto
          101 69 55 127 50 52 -3 -6 54 -25 callsubr
        </CharString>
        <CharString name="f_l">
          142 -62 callgsubr
          353 -49 callsubr
          641 -1 callsubr
          -160 -220 160 -862 302 862 214 220 -214 75 vlineto
          101 70 55 126 50 52 -3 -6 55 -25 callsubr
        </CharString>
        <CharString name="fi">
          136 21 -21 862 220 212 263 hstem
          180 302 353 -58 callgsubr
          482 1121 rmoveto
          113 69 -5 callsubr
          -116 -104 24 -115 21 callsubr
          -160 -220 160 -862 302 862 212 220 -212 vlineto
          353 hmoveto
          -1082 302 1082 vlineto
          endchar
        </CharString>
        <CharString name="five">
          53 -20 243 511 224 250 248 hstemhm
          99 994 -302 302 hintmask 11110000
          134 715 rmoveto
          240 -59 rlineto
          37 36 50 41 104 hhcurveto
          hintmask 11101000
          156 71 -98 -149 -146 -52 -118 -143 -113 -73 71 115 -11 hvcurveto
          -300 hlineto
          -269 5 240 -160 253 hhcurveto
          337 159 233 255 310 -163 180 -283 -96 -83 -34 -21 -37 hvcurveto
          35 305 rlineto
          578 248 -825 hlineto
          endchar
        </CharString>
        <CharString name="five.frac">
          653 169 219 -47 callsubr
          1045 -99 callgsubr
        </CharString>
        <CharString name="five.smcp">
          -58 18 callgsubr
          333 207 160 238 hstemhm
          73 915 -301 301 hintmask 11110000
          100 564 rmoveto
          240 -59 rlineto
          19 27 43 36 99 hhcurveto
          hintmask 11101000
          119 59 -65 -102 -88 -33 -78 -121 -93 -61 26 78 -3 hvcurveto
          -303 hlineto
          -215 4 223 -132 233 hhcurveto
          311 144 202 206 239 -139 136 -260 -83 -82 -29 -11 -28 hvcurveto
          30 200 rlineto
          496 238 -742 hlineto
          endchar
        </CharString>
        <CharString name="five.sup">
          -11 169 219 -47 callsubr
          381 -99 callgsubr
        </CharString>
        <CharString name="five.tnum">
          6 endchar
        </CharString>
        <CharString name="four">
          53 21 -21 313 243 900 -20 hstem
          660 -58 callgsubr
          1122 556 rmoveto
          -160 900 -304 hlineto
          -601 -952 15 -191 rlineto
          588 -313 302 313 160 hlineto
          -769 243 rmoveto
          287 456 20 35 rlineto
          -491 vlineto
          endchar
        </CharString>
        <CharString name="four.frac">
          823 171 -21 callsubr
          994 -93 callgsubr
        </CharString>
        <CharString name="four.smcp">
          -58 21 -21 236 245 hstem
          579 -58 callgsubr
          1014 481 rmoveto
          -133 684 -302 -1 hlineto
          -526 -729 18 -199 rlineto
          508 -236 302 236 133 hlineto
          -673 245 rmoveto
          219 282 19 30 rlineto
          -312 vlineto
          endchar
        </CharString>
        <CharString name="four.sup">
          21 -21 159 171 -21 callsubr
          330 -93 callgsubr
        </CharString>
        <CharString name="four.tnum">
          66 endchar
        </CharString>
        <CharString name="fraction">
          -214 109 1215 hstem
          27 856 vstem
          172 109 rmoveto
          711 1138 -145 77 -711 -1138 rlineto
          endchar
        </CharString>
        <CharString name="g">
          47 -42 callsubr
          66 301 395 303 hintmask 10111100
          791 36 callgsubr
          -11 -100 rlineto
          76 -62 -87 44 -125 hhcurveto
          -273 -167 -224 -27 callsubr
          168 -233 270 111 84 42 71 63 vhcurveto
          -54 vlineto
          -147 -87 -84 -151 -107 -88 47 70 -64 vhcurveto
          -131 -185 rlineto
          -112 91 176 -54 135 hhcurveto
          315 214 167 298 hvcurveto
          1043 vlineto
          hintmask 11011100
          -485 -858 rmoveto
          -146 -67 134 -19 callsubr
          175 71 134 144 87 58 -33 38 callsubr
          -59 -34 -88 hhcurveto
          endchar
        </CharString>
        <CharString name="g.alt">
          -42 -438 226 217 226 111 227 359 154 hstemhm
          -9 1065 -1011 300 351 300 hintmask 11111000
          668 231 rmoveto
          -186 hlineto
          -72 -55 12 60 23 9 17 12 14 hvcurveto
          -10 45 49 -5 52 hhcurveto
          hintmask 11110110
          287 187 164 206 hvcurveto
          22 vlineto
          74 -21 65 -39 55 vhcurveto
          120 hlineto
          -2 154 rlineto
          -362 hlineto
          13 -52 -58 7 -62 hhcurveto
          -286 -189 -149 -219 hvcurveto
          -22 vlineto
          -133 79 -116 134 -65 vhcurveto
          -62 -41 -54 -59 -88 vvcurveto
          -53 17 -41 28 -31 vhcurveto
          -105 -45 -91 -82 -120 vvcurveto
          -147 176 -129 327 355 203 198 168 vhcurveto
          hintmask 11111000
          192 -141 111 -243 vhcurveto
          hintmask 11110110
          -323 503 rmoveto
          80 66 61 109 110 66 -61 -80 vhcurveto
          -22 vlineto
          -76 -64 -67 -110 -112 -65 67 76 vhcurveto
          149 -924 rmoveto
          -150 -70 57 66 45 25 37 34 20 hvcurveto
          -5 30 31 -3 32 hhcurveto
          193 hlineto
          103 30 -48 -46 -57 -76 -66 -182 hvcurveto
          endchar
        </CharString>
        <CharString name="g.ss06">
          50 -42 callsubr
          65 28 callsubr
          hintmask 10111100
          804 36 callgsubr
          -16 -106 rlineto
          79 -62 -89 47 -129 hhcurveto
          -272 -171 -221 -27 callsubr
          171 20 callgsubr
          -12 vlineto
          -184 -83 -90 -180 -94 -68 21 31 -75 vhcurveto
          -44 -216 rlineto
          -52 97 124 -18 95 hhcurveto
          330 200 182 326 hvcurveto
          1000 25 callgsubr
          -70 137 -19 callsubr
          176 73 130 145 87 58 -32 38 callsubr
          -58 -35 -89 hhcurveto
          endchar
        </CharString>
        <CharString name="g.ss07">
          47 -42 callsubr
          17 callgsubr
          378 302 hintmask 10111100
          782 36 callgsubr
          -16 -106 rlineto
          80 -62 -88 46 -130 hhcurveto
          -272 -151 -221 -27 callsubr
          151 20 callgsubr
          -15 vlineto
          -183 -83 -88 -180 -92 -65 20 28 -73 vhcurveto
          -44 -216 rlineto
          -49 95 121 -17 93 hhcurveto
          330 200 181 324 hvcurveto
          1003 25 callgsubr
          -50 137 -19 callsubr
          176 54 130 144 91 57 -35 -65 32 vhcurveto
          -430 vlineto
          -65 -32 -57 -39 -93 hhcurveto
          endchar
        </CharString>
        <CharString name="germandbls">
          177 -20 243 -202 -21 1318 242 hstemhm
          135 302 204 302 -196 300 -111 301 hintmask 01110100
          437 hmoveto
          1096 vlineto
          167 61 55 97 88 64 -59 -87 vhcurveto
          hintmask 01111000
          -155 -106 -18 -181 vvcurveto
          hintmask 10110010
          -257 295 -45 -160 vvcurveto
          -83 -58 -50 -99 -96 -78 27 23 -42 vhcurveto
          -56 -239 rlineto
          -32 55 119 -22 103 hhcurveto
          293 160 141 239 hvcurveto
          hintmask 01111000
          250 -294 94 128 vvcurveto
          hintmask 01110100
          160 104 -1 195 vvcurveto
          247 -193 127 -234 -299 -186 -156 -303 vhcurveto
          -1101 vlineto
          endchar
        </CharString>
        <CharString name="grave">
          -443 6 callsubr
          53 524 vstem
          577 12 callsubr
          -99 callsubr
          endchar
        </CharString>
        <CharString name="gravecomb">
          -1125 6 callsubr
          -900 524 vstem
          -376 12 callsubr
          -99 callsubr
          endchar
        </CharString>
        <CharString name="greater">
          -69 129 974 hstem
          118 873 vstem
          118 1103 rmoveto
          -289 vlineto
          571 -195 -571 -201 rlineto
          -289 vlineto
          873 364 rlineto
          247 vlineto
          endchar
        </CharString>
        <CharString name="guillemotleft">
          -94 122 799 hstem
          73 863 vstem
          543 921 -67 callsubr
          630 399 -67 callsubr
          endchar
        </CharString>
        <CharString name="guillemotright">
          -94 121 799 hstem
          84 868 vstem
          554 511 rmoveto
          19 vlineto
          -279 390 rlineto
          -39 callgsubr
          398 799 rmoveto
          -39 callgsubr
          279 390 rlineto
          19 vlineto
          endchar
        </CharString>
        <CharString name="guilsinglleft">
          -483 122 799 hstem
          108 470 vstem
          578 921 -67 callsubr
          endchar
        </CharString>
        <CharString name="guilsinglright">
          -506 121 799 hstem
          80 470 vstem
          271 920 rmoveto
          -39 callgsubr
          279 390 rlineto
          19 vlineto
          endchar
        </CharString>
        <CharString name="h">
          24 15 callsubr
          100 302 30 callsubr
          vstem
          687 37 callsubr
          -117 -98 -50 -86 -70 hvcurveto
          570 -302 -1536 302 770 vlineto
          55 33 55 33 86 hhcurveto
          107 61 -41 -137 hvcurveto
          -680 302 678 vlineto
          309 -145 115 -214 vhcurveto
          endchar
        </CharString>
        <CharString name="hyphen">
          -297 -34 callgsubr
        </CharString>
        <CharString name="i">
          -576 -17 callsubr
          123 -49 callsubr
          273 1517 rmoveto
          -101 -67 -65 -90 -90 67 -65 101 102 67 65 90 90 -67 65 -102 hvcurveto
          153 -1517 rmoveto
          -49 callgsubr
        </CharString>
        <CharString name="iacute">
          -3 callgsubr
          331 1519 -92 callsubr
          -223 -1519 rmoveto
          -49 callgsubr
        </CharString>
        <CharString name="icircumflex">
          -558 21 -21 1227 12 hstem
          131 -49 callsubr
          678 1239 rmoveto
          -100 callgsubr
          155 -8 callsubr
          -141 rlineto
          238 hlineto
          -244 -1227 rmoveto
          -49 callgsubr
        </CharString>
        <CharString name="idieresis">
          -558 21 -21 1219 258 0 -20 hstemhm
          131 303 hintmask 10110000
          35 1478 rmoveto
          -81 -60 -57 -73 hvcurveto
          hintmask 11010000
          -72 60 -57 81 81 61 57 72 vhcurveto
          hintmask 10110000
          73 -61 57 -81 vhcurveto
          496 -1 rmoveto
          -81 -61 -56 -73 hvcurveto
          hintmask 11010000
          -73 61 -56 81 81 61 56 73 vhcurveto
          hintmask 10110000
          73 -61 56 -81 vhcurveto
          -97 -1477 rmoveto
          -49 callgsubr
        </CharString>
        <CharString name="igrave">
          -3 callgsubr
          451 31 callgsubr
          -99 callsubr
          230 -1208 rmoveto
          -49 callgsubr
        </CharString>
        <CharString name="j">
          -587 -437 247 -247 1954 hstemhm
          125 303 hintmask 01100000
          271 1517 rmoveto
          -102 -67 -65 -90 -90 67 -65 102 101 67 65 90 90 -67 65 -101 hvcurveto
          157 -435 rmoveto
          -303 -1133 hlineto
          hintmask 10100000
          -96 -47 -43 -87 -31 -29 3 6 -32 vhcurveto
          -239 vlineto
          -13 51 46 -4 51 hhcurveto
          240 141 136 250 hvcurveto
          endchar
        </CharString>
        <CharString name="k">
          -24 -17 callsubr
          108 -58 callgsubr
          778 hmoveto
          346 hlineto
          -419 633 388 449 rlineto
          -362 hlineto
          -271 -321 -50 -65 rlineto
          841 -302 -1537 302 325 vlineto
          101 101 rlineto
          endchar
        </CharString>
        <CharString name="k.alt">
          -23 21 -21 441 240 hstem
          109 -58 callgsubr
          762 hmoveto
          347 hlineto
          -372 587 336 495 rlineto
          -349 hlineto
          -239 -401 rlineto
          -74 855 -302 -1536 302 441 85 hlineto
          endchar
        </CharString>
        <CharString name="k.alt2">
          -31 -17 callsubr
          109 -58 callgsubr
          1104 hmoveto
          -434 578 391 504 rlineto
          -352 hlineto
          -298 -401 rlineto
          879 -302 -1560 302 468 vlineto
          336 -468 rlineto
          endchar
        </CharString>
        <CharString name="l">
          -576 -17 callsubr
          123 -49 callsubr
          426 hmoveto
          19 callgsubr
          -303 -1536 vlineto
          endchar
        </CharString>
        <CharString name="less">
          -82 130 974 hstem
          53 867 vstem
          920 1104 rmoveto
          -867 -363 rlineto
          -248 vlineto
          867 -363 rlineto
          291 vlineto
          -564 195 564 198 rlineto
          endchar
        </CharString>
        <CharString name="logicalnot">
          3 634 171 hstem
          761 200 vstem
          126 805 rmoveto
          -171 635 -260 200 431 vlineto
          endchar
        </CharString>
        <CharString name="longs">
          -591 21 -21 1314 -18 callsubr
          112 24 callsubr
          112 hmoveto
          301 1174 hlineto
          89 51 51 93 43 25 -4 -6 30 vhcurveto
          24 232 rlineto
          12 -55 -52 9 -55 hhcurveto
          -254 -151 -135 -248 hvcurveto
          endchar
        </CharString>
        <CharString name="longst">
          207 1 -21 41 -21 862 220 232 -17 callgsubr
          185 302 312 302 hintmask 01111100
          1211 -16 callsubr
          -1 100 vlineto
          48 -132 -180 59 -197 hhcurveto
          -255 -151 -135 -248 hvcurveto
          -92 -160 -220 160 -862 302 1174 vlineto
          89 51 51 92 76 66 -15 -12 26 vhcurveto
          -44 1 -161 35 callgsubr
          hintmask 10111100
          -10 callsubr
          hintmask 01111100
          -4 -20 -28 -3 -36 hhcurveto
          endchar
        </CharString>
        <CharString name="m">
          646 15 callsubr
          108 302 324 302 325 -58 callgsubr
          1318 37 callsubr
          -145 -108 -62 -102 -70 hvcurveto
          114 -53 -102 50 -129 hhcurveto
          -135 -104 -52 -89 -71 hvcurveto
          -10 121 rlineto
          -283 -1082 302 761 hlineto
          60 34 56 37 79 hhcurveto
          97 58 -33 -141 hvcurveto
          -684 302 722 vlineto
          24 vlineto
          69 31 57 43 83 hhcurveto
          95 59 -31 -140 hvcurveto
          -687 302 686 vlineto
          307 -137 109 -208 vhcurveto
          endchar
        </CharString>
        <CharString name="macron">
          -89 1287 169 hstem
          172 691 vstem
          863 1287 rmoveto
          169 -691 -169 vlineto
          endchar
        </CharString>
        <CharString name="minus">
          9 589 247 hstem
          144 868 vstem
          1012 589 rmoveto
          247 -868 -247 vlineto
          endchar
        </CharString>
        <CharString name="multiply">
          -38 202 969 hstem
          62 956 vstem
          1018 996 rmoveto
          -177 175 -301 -307 -301 307 -177 -175 304 -309 -304 -310 177 -175 301 307 301 -307 177 175 -304 310 rlineto
          endchar
        </CharString>
        <CharString name="n">
          25 15 callsubr
          101 302 341 -58 callgsubr
          705 1102 -71 callgsubr
        </CharString>
        <CharString name="nine">
          53 -17 253 233 230 534 -32 callgsubr
          85 301 388 -58 callgsubr
          578 1477 rmoveto
          -297 -196 -234 -283 -286 154 -205 272 100 91 43 64 68 hvcurveto
          -228 -24 -144 -112 -279 hhcurveto
          -19 -253 23 hlineto
          481 268 300 492 hvcurveto
          107 vlineto
          366 -203 229 -295 vhcurveto
          9 -778 rmoveto
          -135 -66 117 146 136 69 135 122 114 83 -96 -199 hvcurveto
          -124 vlineto
          -64 -32 -65 -51 -90 hhcurveto
          endchar
        </CharString>
        <CharString name="nine.frac">
          651 -76 callsubr
          1465 -101 callsubr
        </CharString>
        <CharString name="nine.smcp">
          -58 -18 241 148 224 343 -32 callgsubr
          71 302 309 -58 callgsubr
          527 1182 rmoveto
          -267 -189 -193 -230 -258 148 -130 239 82 77 30 48 60 hvcurveto
          -193 -28 -134 -33 -207 hhcurveto
          -19 -241 23 hlineto
          384 288 149 492 hvcurveto
          80 vlineto
          339 -204 140 -253 vhcurveto
          12 -587 rmoveto
          -110 -56 57 103 101 58 82 96 97 58 -49 -124 hvcurveto
          -112 vlineto
          -30 -24 -48 -28 -71 hhcurveto
          endchar
        </CharString>
        <CharString name="nine.sup">
          -13 -76 callsubr
          801 -101 callsubr
        </CharString>
        <CharString name="nine.tnum">
          64 endchar
        </CharString>
        <CharString name="ntilde">
          25 21 7 callsubr
          153 -52 callsubr
          101 302 -207 173 375 302 -263 172 hintmask 00000000
          hintmask 11010110
          451 1340 rmoveto
          hintmask 11101001
          -82 callsubr
          hintmask 11010110
          -45 callgsubr
          -95 callsubr
          hintmask 11101010
          254 -238 -71 callgsubr
        </CharString>
        <CharString name="numbersign">
          88 21 -21 410 177 276 177 416 -20 hstem
          55 1116 vstem
          1171 863 rmoveto
          177 -222 vlineto
          21 callgsubr
          -185 hlineto
          21 callgsubr
          -259 -177 228 hlineto
          -47 -276 rlineto
          -257 -177 226 hlineto
          -71 -410 rlineto
          188 hlineto
          71 410 rlineto
          184 hlineto
          -71 -410 rlineto
          187 hlineto
          71 410 rlineto
          256 177 -225 hlineto
          47 276 rlineto
          -234 -276 rmoveto
          -185 hlineto
          48 276 rlineto
          184 hlineto
          endchar
        </CharString>
        <CharString name="o">
          31 -20 243 636 243 -56 callgsubr
          63 551 -107 callsubr
        </CharString>
        <CharString name="o.ss06">
          55 4 callgsubr
          57 301 464 24 callsubr
          57 551 rmoveto
          -7 callgsubr
          203 -7 callsubr
          330 202 9 callgsubr
          vhcurveto
          21 vlineto
          316 -202 235 -332 -329 -203 -235 -316 vhcurveto
          301 -21 rmoveto
          21 vlineto
          167 75 -8 callsubr
          159 74 -141 -167 vhcurveto
          -21 vlineto
          -171 -75 -136 -156 -159 -74 136 171 vhcurveto
          endchar
        </CharString>
        <CharString name="oacute">
          31 -68 callsubr
          123 311 -56 callgsubr
          623 19 callgsubr
          -92 callsubr
          -886 -985 -107 callsubr
        </CharString>
        <CharString name="ocircumflex">
          31 -68 callsubr
          142 12 -56 callgsubr
          970 1256 rmoveto
          -100 callgsubr
          155 -8 callsubr
          -141 rlineto
          238 hlineto
          -907 -693 -107 callsubr
        </CharString>
        <CharString name="odieresis">
          31 -68 callsubr
          134 259 -56 callgsubr
          327 1495 -103 callgsubr
          -760 -943 -107 callsubr
        </CharString>
        <CharString name="oe">
          722 -20 243 221 203 212 -18 callsubr
          81 302 1091 296 vstem
          1770 613 rmoveto
          298 -166 191 -297 vhcurveto
          -145 1 -118 -53 -83 -89 rrcurveto
          89 -87 -123 52 -157 hhcurveto
          -329 -184 -235 -316 hvcurveto
          -7 callgsubr
          184 -7 callsubr
          157 124 53 90 86 vhcurveto
          -89 89 126 -54 155 hhcurveto
          187 147 60 63 80 hvcurveto
          -80 194 rlineto
          -42 -84 -73 -32 -143 hhcurveto
          -146 -78 98 123 -20 hvcurveto
          647 hlineto
          -964 86 rmoveto
          -171 -54 -136 -156 -159 -54 136 171 vhcurveto
          21 vlineto
          167 54 141 157 159 53 -141 -167 vhcurveto
          668 96 rmoveto
          -349 hlineto
          122 18 55 90 109 hhcurveto
          118 49 -74 -112 hvcurveto
          endchar
        </CharString>
        <CharString name="ograve">
          31 -68 callsubr
          123 311 -56 callgsubr
          743 12 callsubr
          -99 callsubr
          -433 -674 -107 callsubr
        </CharString>
        <CharString name="one">
          53 21 -21 1457 -20 hstem
          509 24 callsubr
          810 hmoveto
          1457 -31 vlineto
          -612 -217 rlineto
          -243 vlineto
          342 103 rlineto
          -1100 vlineto
          endchar
        </CharString>
        <CharString name="one.smcp">
          -58 -17 callsubr
          450 24 callsubr
          751 hmoveto
          1161 -28 vlineto
          -574 -182 rlineto
          -233 vlineto
          301 64 rlineto
          -810 vlineto
          endchar
        </CharString>
        <CharString name="one.sup">
          -17 callsubr
          323 209 vstem
          532 hmoveto
          -61 callsubr
        </CharString>
        <CharString name="one.tnum">
          24 endchar
        </CharString>
        <CharString name="ordfeminine">
          -217 691 144 198 117 178 148 hstemhm
          137 175 -159 173 254 175 hintmask 11101100
          781 705 rmoveto
          -19 58 -7 58 65 vvcurveto
          314 vlineto
          183 -117 93 -174 -188 -123 -98 -135 vhcurveto
          173 -14 rlineto
          64 52 35 86 78 38 -45 -82 vhcurveto
          -51 -102 vlineto
          hintmask 11110100
          -230 -111 -84 -147 -138 89 -90 160 94 66 38 44 41 hvcurveto
          4 -24 6 -23 7 -21 rrcurveto
          -292 218 rmoveto
          58 51 52 116 vhcurveto
          101 -136 hlineto
          -33 -36 -62 -29 -53 hhcurveto
          -80 -37 33 55 hvcurveto
          endchar
        </CharString>
        <CharString name="ordmasculine">
          -188 690 146 492 148 hstem
          118 175 343 175 vstem
          118 1121 rmoveto
          -77 vlineto
          -207 134 -147 214 213 132 147 207 vhcurveto
          77 vlineto
          207 -132 148 -215 -212 -134 -148 -207 vhcurveto
          175 -77 rmoveto
          77 vlineto
          117 56 90 115 116 56 -90 -117 vhcurveto
          -77 vlineto
          -119 -56 -89 -114 -117 -56 89 119 vhcurveto
          endchar
        </CharString>
        <CharString name="oslash">
          30 -68 callsubr
          115 -20 -56 callgsubr
          892 1006 rmoveto
          103 211 rlineto
          -165 hlineto
          -70 -143 rlineto
          18 -54 -62 10 -67 hhcurveto
          -329 -185 -235 -316 hvcurveto
          -21 vlineto
          -197 73 -166 135 -97 vhcurveto
          -104 -213 rlineto
          165 hlineto
          72 148 rlineto
          -16 53 58 -9 64 hhcurveto
          330 184 9 callgsubr
          hvcurveto
          21 vlineto
          194 -70 164 -131 97 vhcurveto
          -527 -476 rmoveto
          21 vlineto
          167 56 -8 callsubr
          27 24 -4 -8 22 vhcurveto
          -250 -512 rlineto
          -25 53 -10 68 74 vvcurveto
          426 hmoveto
          -171 -56 -136 -156 -24 -21 3 6 -19 vhcurveto
          245 503 rlineto
          22 -52 9 -64 -68 vvcurveto
          endchar
        </CharString>
        <CharString name="otilde">
          31 -68 callsubr
          153 -52 callsubr
          17 callgsubr
          -169 -51 callgsubr
          -164 302 hintmask 00000000
          hintmask 11101010
          955 1523 -90 callgsubr
          -892 -972 -107 callsubr
        </CharString>
        <CharString name="p">
          28 -22 callgsubr
          108 302 378 10 callgsubr
          -78 -64 hvcurveto
          -11 104 rlineto
          -280 -12 callgsubr
          147 -36 callgsubr
          -51 -140 -146 -92 -57 39 64 -32 vhcurveto
          433 vlineto
          64 32 57 35 90 22 callgsubr
        </CharString>
        <CharString name="p.ss06">
          49 -22 callgsubr
          108 302 398 10 callgsubr
          -79 -64 hvcurveto
          -12 105 rlineto
          -279 -12 callgsubr
          167 236 315 hvcurveto
          21 vlineto
          329 -167 221 -275 vhcurveto
          141 -571 rmoveto
          hintmask 10111000
          -170 -71 -138 -146 -88 -58 35 57 -35 vhcurveto
          452 vlineto
          59 35 58 32 86 hhcurveto
          144 75 -130 -176 hvcurveto
          endchar
        </CharString>
        <CharString name="paragraph">
          -122 -78 callsubr
          hstem
          652 222 vstem
          652 hmoveto
          222 -73 callsubr
          -305 hlineto
          -318 -174 -200 -268 -270 174 -198 318 hvcurveto
          83 hlineto
          endchar
        </CharString>
        <CharString name="parenleft">
          -405 -453 2066 hstem
          124 251 vstem
          124 592 rmoveto
          -25 vlineto
          -559 268 -361 231 -100 vhcurveto
          57 158 rlineto
          -150 113 -155 263 484 vvcurveto
          29 vlineto
          485 155 262 150 112 vhcurveto
          -57 160 rlineto
          -231 -101 -268 -360 -560 vvcurveto
          endchar
        </CharString>
        <CharString name="parenright">
          -403 -453 2066 hstem
          346 268 vstem
          614 567 rmoveto
          25 vlineto
          537 -276 383 -239 101 vhcurveto
          -59 -159 rlineto
          146 -111 160 -264 -485 vvcurveto
          -29 vlineto
          -484 -157 -265 -149 -111 vhcurveto
          59 -158 rlineto
          239 100 276 383 537 vvcurveto
          endchar
        </CharString>
        <CharString name="percent">
          390 -20 173 331 173 143 173 331 173 hstem
          94 199 239 198 59 199 239 199 vstem
          94 1176 rmoveto
          -77 vlineto
          -163 111 -136 209 209 107 136 163 vhcurveto
          77 vlineto
          165 -107 136 -211 -207 -111 -136 -165 vhcurveto
          379 -1067 rmoveto
          711 1138 -146 77 -711 -1138 rlineto
          -34 913 rmoveto
          77 vlineto
          68 39 60 80 81 39 -60 -68 vhcurveto
          -77 vlineto
          -66 -38 -60 -80 -82 -39 60 66 vhcurveto
          496 -742 rmoveto
          -77 vlineto
          -164 111 -136 209 210 107 136 164 vhcurveto
          77 vlineto
          164 -107 136 -212 -207 -111 -136 -164 vhcurveto
          199 -77 rmoveto
          77 vlineto
          67 39 60 80 81 39 -60 -67 vhcurveto
          -77 vlineto
          -67 -23 -60 -95 -72 -49 60 67 vhcurveto
          endchar
        </CharString>
        <CharString name="period">
          -523 10 -21 hstem
          124 339 vstem
          293 309 rmoveto
          -91 callsubr
          endchar
        </CharString>
        <CharString name="periodcentered">
          -497 533 320 hstem
          140 339 vstem
          309 853 rmoveto
          -91 callsubr
          endchar
        </CharString>
        <CharString name="plus">
          -13 548 272 386 -20 hstem
          412 285 vstem
          1052 820 rmoveto
          -355 386 -285 -386 -358 -272 358 -402 285 402 355 hlineto
          endchar
        </CharString>
        <CharString name="plusminus">
          -24 1 247 454 253 hstem
          417 264 vstem
          681 955 rmoveto
          334 -264 -334 -329 -253 329 -358 264 358 323 253 vlineto
          -894 -954 rmoveto
          868 247 -868 hlineto
          endchar
        </CharString>
        <CharString name="q">
          31 -20 243 -222 -21 879 -17 callgsubr
          17 callgsubr
          377 303 hintmask 01111000
          781 36 callgsubr
          -20 -113 rlineto
          84 -64 -89 49 -121 hhcurveto
          -274 -150 -221 -27 callsubr
          150 -236 272 110 84 42 70 63 vhcurveto
          -508 303 10 callsubr
          -51 138 -19 callsubr
          175 54 132 145 89 57 -34 -63 32 vhcurveto
          -439 vlineto
          -62 -33 -56 -38 -91 hhcurveto
          endchar
        </CharString>
        <CharString name="q.ss06">
          53 -20 243 -222 -21 879 -17 callgsubr
          65 28 callsubr
          hintmask 01111000
          805 36 callgsubr
          -20 -115 rlineto
          85 -65 -89 50 -122 hhcurveto
          -274 -170 -222 -27 callsubr
          171 -235 271 111 84 42 70 63 vhcurveto
          -508 302 10 callsubr
          -71 137 -19 callsubr
          176 74 132 145 85 58 -31 -58 36 vhcurveto
          -455 vlineto
          -58 -35 -59 -34 -87 hhcurveto
          endchar
        </CharString>
        <CharString name="question">
          -99 9 -21 1243 245 hstemhm
          42 912 -303 303 hintmask 11100000
          346 453 rmoveto
          265 hlineto
          2 103 21 66 76 68 rrcurveto
          hintmask 11010000
          131 122 113 96 175 vvcurveto
          254 -169 139 -283 -257 -199 -127 -286 -4 vhcurveto
          303 hlineto
          119 2 75 49 80 hhcurveto
          98 51 -54 -108 -92 -63 -66 -93 -79 hvcurveto
          hintmask 11100000
          -113 -99 -35 -102 -1 -178 rrcurveto
          137 -147 rmoveto
          3 callgsubr
          3 callsubr
          hvcurveto
          endchar
        </CharString>
        <CharString name="questiondown">
          -99 -385 245 hstemhm
          71 302 -302 913 hintmask 10100000
          548 785 rmoveto
          3 callsubr
          3 callgsubr
          hvcurveto
          128 -147 rmoveto
          -264 hlineto
          -2 -103 -13 -58 -76 -68 rrcurveto
          hintmask 11000000
          -130 -122 -120 -104 -175 vvcurveto
          -255 169 -138 284 257 199 127 286 4 vhcurveto
          -303 hlineto
          -118 -2 -73 -50 -88 hhcurveto
          -88 -57 47 102 107 68 62 91 85 hvcurveto
          hintmask 10100000
          113 100 31 97 178 vvcurveto
          endchar
        </CharString>
        <CharString name="quotedbl">
          -470 980 557 hstem
          54 209 124 209 vstem
          263 1399 rmoveto
          138 -209 -557 169 vlineto
          373 419 rmoveto
          138 -209 -557 168 vlineto
          endchar
        </CharString>
        <CharString name="quotedblbase">
          -286 -327 593 hstem
          150 243 105 243 vstem
          393 65 rmoveto
          201 -243 -201 vlineto
          -135 -32 26 callgsubr
          76 163 139 vvcurveto
          348 hmoveto
          1 201 rlineto
          -244 -201 hlineto
          -135 -40 26 callgsubr
          84 163 139 vvcurveto
          endchar
        </CharString>
        <CharString name="quotedblleft">
          -283 1046 527 hstem
          113 234 111 234 vstem
          113 1201 rmoveto
          -70 callgsubr
          345 hmoveto
          -70 callgsubr
          endchar
        </CharString>
        <CharString name="quotedblright">
          -276 1006 530 hstem
          163 234 117 234 vstem
          397 1378 rmoveto
          -71 callsubr
          351 hmoveto
          -71 callsubr
          endchar
        </CharString>
        <CharString name="quoteleft">
          -637 1046 527 hstem
          105 234 vstem
          105 1201 rmoveto
          -70 callgsubr
          endchar
        </CharString>
        <CharString name="quoteright">
          -647 1006 530 hstem
          149 234 vstem
          383 1378 rmoveto
          -71 callsubr
          endchar
        </CharString>
        <CharString name="quotesinglbase">
          -604 -307 544 hstem
          150 243 vstem
          393 65 rmoveto
          172 -243 -172 vlineto
          -127 -32 -88 -47 -78 vhcurveto
          139 -79 rlineto
          98 85 85 155 132 vvcurveto
          endchar
        </CharString>
        <CharString name="quotesingle">
          -797 976 560 hstem
          58 220 vstem
          278 1384 rmoveto
          152 -220 -560 189 vlineto
          endchar
        </CharString>
        <CharString name="r">
          -370 -17 callsubr
          108 -58 callgsubr
          641 37 callsubr
          -105 -81 -56 -95 -54 hvcurveto
          -9 131 rlineto
          -284 -1082 302 700 hlineto
          70 33 68 36 110 hhcurveto
          31 47 -4 -4 29 hvcurveto
          4 292 rlineto
          7 -22 -38 5 -31 hhcurveto
          endchar
        </CharString>
        <CharString name="registered">
          482 -20 125 548 134 246 133 185 125 hstemhm
          86 122 293 151 301 151 -147 150 276 123 hintmask 1111111010000000
          -84 callgsubr
          308 410 rmoveto
          95 -28 78 -79 43 vhcurveto
          hintmask 1111110110000000
          72 40 38 56 76 vvcurveto
          172 -127 91 -198 vhcurveto
          -281 -850 151 337 158 hlineto
          hintmask 1111111010000000
          104 39 -45 -94 hvcurveto
          -54 vlineto
          -29 0 -81 13 -34 vhcurveto
          155 16 hlineto
          -13 30 -4 47 50 vvcurveto
          hintmask 1111110110000000
          -318 328 rmoveto
          -134 246 130 hlineto
          130 45 -33 -97 -77 -80 -39 -91 hvcurveto
          endchar
        </CharString>
        <CharString name="ring">
          -445 1113 95 214 96 hstem
          120 4 callsubr
          vstem
          343 1518 rmoveto
          -129 -94 -93 -111 -112 94 -89 129 129 94 89 112 111 -94 93 -129 hvcurveto
          -310 vmoveto
          -66 -41 48 58 58 41 50 66 65 42 -50 -58 -59 -42 -47 -65 hvcurveto
          endchar
        </CharString>
        <CharString name="s">
          -72 -20 213 697 212 hstemhm
          85 289 314 293 -8 callgsubr
          469 433 rmoveto
          -80 callsubr
          302 hlineto
          204 -175 146 -284 -9 callsubr
          vhcurveto
          endchar
        </CharString>
        <CharString name="section">
          166 -447 244 1436 -17 callgsubr
          94 302 -278 303 438 301 -273 297 hintmask 00000000
          hintmask 11001000
          1026 218 rmoveto
          hintmask 11010100
          101 58 57 90 123 vvcurveto
          240 -175 103 -307 78 vhcurveto
          -229 60 -52 33 92 vvcurveto
          76 65 62 155 146 75 -80 -103 -45 callsubr
          275 -199 151 -324 -317 -206 -151 -232 -133 48 -89 88 -67 vhcurveto
          hintmask 11101000
          -102 -58 -58 -93 -121 vvcurveto
          -240 181 -102 299 -79 vhcurveto
          221 -61 64 -41 -82 vvcurveto
          -80 -76 -50 -143 -120 -125 31 141 vhcurveto
          -302 -1 rlineto
          -319 275 -96 272 315 205 133 242 vhcurveto
          hintmask 11001000
          133 -46 90 -88 67 vhcurveto
          hintmask 11100100
          -630 348 rmoveto
          57 21 48 47 29 vhcurveto
          42 -15 45 -13 48 -14 rrcurveto
          222 -66 66 -46 -90 vvcurveto
          -57 -26 -47 -48 -29 vhcurveto
          -42 14 -45 13 -49 13 rrcurveto
          -230 68 -51 34 101 vvcurveto
          endchar
        </CharString>
        <CharString name="semicolon">
          -574 -376 1496 hstem
          166 250 vstem
          276 1120 rmoveto
          -91 callsubr
          140 -1074 -48 callgsubr
        </CharString>
        <CharString name="seven">
          53 21 -21 1213 -18 callsubr
          59 1034 vstem
          1093 1288 rmoveto
          168 -1034 -243 716 vlineto
          -558 -1213 rlineto
          318 hlineto
          endchar
        </CharString>
        <CharString name="seven.frac">
          1284 -30 callgsubr
          1336 -74 callsubr
        </CharString>
        <CharString name="seven.smcp">
          -58 21 -21 922 -18 callsubr
          47 943 vstem
          990 996 rmoveto
          169 -943 -243 626 vlineto
          -491 -922 rlineto
          319 hlineto
          endchar
        </CharString>
        <CharString name="seven.sup">
          21 -21 620 -30 callgsubr
          672 -74 callsubr
        </CharString>
        <CharString name="seven.tnum">
          -55 endchar
        </CharString>
        <CharString name="six">
          11 callgsubr
          96 302 411 24 callsubr
          697 -89 callsubr
        </CharString>
        <CharString name="six.frac">
          653 -75 callgsubr
          1191 -101 callgsubr
        </CharString>
        <CharString name="six.smcp">
          -58 -16 242 312 240 164 247 hstem
          75 302 336 -58 callgsubr
          644 778 rmoveto
          -111 -87 -40 -57 -62 hvcurveto
          217 37 167 44 208 hhcurveto
          16 247 -49 hlineto
          -368 -320 -181 -473 hvcurveto
          -75 vlineto
          -331 206 -145 277 268 189 172 232 231 -131 159 -240 vhcurveto
          -95 -552 rmoveto
          -112 -60 56 127 hvcurveto
          57 vlineto
          36 28 60 36 82 hhcurveto
          102 64 -45 -102 -91 -68 -74 -96 hvcurveto
          endchar
        </CharString>
        <CharString name="six.sup">
          -11 -75 callgsubr
          527 -101 callgsubr
        </CharString>
        <CharString name="six.tnum">
          11 callgsubr
          90 302 411 24 callsubr
          691 -89 callsubr
        </CharString>
        <CharString name="slash">
          -371 8 callgsubr
          -17 748 vstem
          204 -125 rmoveto
          527 1581 rlineto
          -222 hlineto
          -526 -1581 rlineto
          endchar
        </CharString>
        <CharString name="space">
          -615 endchar
        </CharString>
        <CharString name="st">
          624 -20 213 669 220 -192 212 240 218 hstemhm
          85 289 260 263 -209 293 236 302 hintmask 11010101
          1630 228 rmoveto
          -77 -34 28 88 hvcurveto
          518 183 220 -183 90 vlineto
          206 -117 182 -345 -279 -144 -133 -163 vhcurveto
          hintmask 10111101
          -62 18 -57 28 -61 vhcurveto
          12 -48 -54 6 -58 hhcurveto
          -9 callsubr
          hvcurveto
          hintmask 10111011
          -80 callsubr
          hintmask 11010101
          302 hlineto
          196 -82 86 157 vvcurveto
          73 39 78 113 86 82 -44 -126 vhcurveto
          -90 -151 -220 151 -519 vlineto
          -258 122 -105 196 71 57 10 18 51 vhcurveto
          227 vlineto
          -4 -21 -27 -3 -36 hhcurveto
          endchar
        </CharString>
        <CharString name="sterling">
          96 0 253 318 245 407 252 hstemhm
          100 1065 -917 313 hintmask 11110000
          526 253 rmoveto
          42 50 17 62 77 vvcurveto
          -5 129 rlineto
          299 245 hlineto
          hintmask 11101000
          -309 hlineto
          -9 223 rlineto
          122 59 62 84 86 73 -42 -126 vhcurveto
          298 hlineto
          252 -164 168 -295 -272 -182 -160 -276 vhcurveto
          7 -223 rlineto
          -155 -245 162 hlineto
          5 -148 rlineto
          -76 -7 -79 -61 -15 vhcurveto
          -96 -253 1062 253 hlineto
          endchar
        </CharString>
        <CharString name="sterling.smcp">
          58 0 244 229 174 293 241 hstem
          779 109 vstem
          436 244 rmoveto
          61 62 34 77 3 90 rrcurveto
          354 174 -361 hlineto
          -4 82 rlineto
          136 -8 47 75 86 hhcurveto
          79 52 -47 -130 hvcurveto
          302 hlineto
          250 -143 168 -292 -266 -168 -166 -286 9 vhcurveto
          2 -82 rlineto
          -156 -174 161 hlineto
          1 -102 -16 -110 -66 -17 rrcurveto
          -10 -244 961 244 hlineto
          endchar
        </CharString>
        <CharString name="t">
          -430 1 -21 882 220 hstem
          164 -58 callgsubr
          576 -16 callsubr
          -302 -268 35 callgsubr
          -10 callsubr
          -4 -20 -28 -3 -36 hhcurveto
          endchar
        </CharString>
        <CharString name="thorn">
          34 -22 callgsubr
          109 302 378 301 hintmask 01111000
          668 37 callsubr
          -110 -84 -41 -70 -63 hvcurveto
          545 -302 -1952 302 509 vlineto
          -71 63 85 -42 111 hhcurveto
          272 148 -36 callgsubr
          -52 -140 -145 -92 -57 38 64 -32 vhcurveto
          435 vlineto
          64 32 56 34 91 22 callgsubr
        </CharString>
        <CharString name="three">
          53 -20 243 403 235 373 -17 callgsubr
          759 302 -279 301 hintmask 00000000
          hintmask 11101000
          839 748 rmoveto
          hintmask 11110000
          140 65 82 120 128 vvcurveto
          273 -204 143 -297 -264 -217 -154 -243 -45 callsubr
          95 88 59 99 130 61 -78 -100 -118 -68 -77 -140 vhcurveto
          -156 -235 156 hlineto
          hintmask 11101000
          143 88 -60 -152 -111 -80 -80 -134 -117 -89 76 102 hvcurveto
          -302 hlineto
          -291 254 -130 246 297 226 156 273 162 -84 120 -160 57 vhcurveto
          endchar
        </CharString>
        <CharString name="three.smcp">
          -58 18 callgsubr
          267 201 244 -17 callgsubr
          692 301 -8 callgsubr
          774 599 rmoveto
          121 45 78 86 118 vvcurveto
          217 -191 117 -277 -235 -207 -114 -218 -45 callsubr
          57 67 32 82 116 41 -59 -55 -78 -54 -52 -113 vhcurveto
          -131 -201 131 hlineto
          117 71 -38 -99 -70 -52 -60 -116 -110 -68 58 63 hvcurveto
          -303 hlineto
          -266 244 -98 218 277 211 125 218 152 -83 83 -136 37 vhcurveto
          endchar
        </CharString>
        <CharString name="three.sup">
          -11 -76 callgsubr
          405 -96 callsubr
        </CharString>
        <CharString name="three.tnum">
          -14 endchar
        </CharString>
        <CharString name="tilde">
          -139 1259 -52 callsubr
          116 -51 callgsubr
          hintmask 10110000
          875 1527 rmoveto
          -83 callsubr
          hintmask 01110000
          -45 callgsubr
          -95 callsubr
          hintmask 10110000
          -63 callgsubr
          -78 callgsubr
          endchar
        </CharString>
        <CharString name="tildecomb">
          -1125 1259 -52 callsubr
          -932 -51 callgsubr
          hintmask 10110000
          -173 1527 rmoveto
          -83 callsubr
          hintmask 01110000
          -45 callgsubr
          -95 callsubr
          hintmask 10110000
          -63 callgsubr
          -78 callgsubr
          endchar
        </CharString>
        <CharString name="two">
          53 0 243 991 -17 callgsubr
          68 1031 -346 302 hintmask 11100000
          1099 hmoveto
          243 -612 vlineto
          240 251 rlineto
          hintmask 11010000
          200 207 128 162 197 vvcurveto
          261 -167 156 -311 -311 -198 -218 -265 -45 callsubr
          137 73 103 128 117 65 -75 -128 -81 -49 -94 -136 -151 vhcurveto
          -471 -498 rlineto
          -207 vlineto
          endchar
        </CharString>
        <CharString name="two.smcp">
          -58 0 243 696 -17 callgsubr
          54 940 -335 302 hintmask 10100000
          994 hmoveto
          243 -518 vlineto
          165 128 rlineto
          hintmask 11010000
          215 169 105 102 174 vvcurveto
          232 -167 134 -290 -278 -172 -184 -222 -45 callsubr
          87 53 76 108 94 48 -49 -75 -46 -46 -89 -111 -96 vhcurveto
          -422 -380 rlineto
          -204 vlineto
          endchar
        </CharString>
        <CharString name="two.sup">
          0 -47 callgsubr
          hmoveto
          -92 callgsubr
        </CharString>
        <CharString name="two.tnum">
          29 endchar
        </CharString>
        <CharString name="u">
          -27 callgsubr
          hstemhm
          101 301 30 callsubr
          hintmask 01110000
          744 36 callgsubr
          hintmask 10110000
          -761 vlineto
          -60 -33 -61 -37 -99 hhcurveto
          -89 -60 46 110 hvcurveto
          702 -301 -700 vlineto
          -286 146 -116 214 129 98 49 83 67 vhcurveto
          hintmask 01110000
          8 -112 rlineto
          283 1082 hlineto
          endchar
        </CharString>
        <CharString name="uacute">
          -27 callgsubr
          12 callsubr
          311 -39 callsubr
          947 19 callgsubr
          -85 callgsubr
          75 -143 -95 callgsubr
        </CharString>
        <CharString name="ucircumflex">
          -27 callgsubr
          1244 12 -39 callsubr
          574 1385 rmoveto
          156 -141 rlineto
          238 12 hlineto
          -100 callgsubr
          325 -162 -95 callgsubr
        </CharString>
        <CharString name="udieresis">
          -27 callgsubr
          1236 259 -39 callsubr
          325 1236 -103 callsubr
          -77 -154 -95 callgsubr
        </CharString>
        <CharString name="ugrave">
          -27 callgsubr
          12 callsubr
          311 -39 callsubr
          741 12 callsubr
          -99 callsubr
          250 -143 -95 callgsubr
        </CharString>
        <CharString name="underscore">
          -213 -236 236 hstem
          1 909 vstem
          910 -236 rmoveto
          236 -909 -236 vlineto
          endchar
        </CharString>
        <CharString name="uni00AD">
          -525 -34 callgsubr
        </CharString>
        <CharString name="uni00B2">
          667 -47 callgsubr
          667 rmoveto
          -92 callgsubr
        </CharString>
        <CharString name="uni00B3">
          656 -76 callgsubr
          1072 -96 callsubr
        </CharString>
        <CharString name="uni00B9">
          667 27 callgsubr
          667 rmoveto
          -61 callsubr
        </CharString>
        <CharString name="uni05B0">
          -1125 -613 181 91 -36 callsubr
          -52 -50 callgsubr
          -272 vmoveto
          58 42 39 52 52 -42 38 -58 -58 -44 -38 -52 -52 -50 callgsubr
          endchar
        </CharString>
        <CharString name="uni05B1">
          5 callgsubr
          -142 182 51 182 hstemhm
          255 202 -64 203 -64 202 79 202 hintmask 01110110
          356 -28 callsubr
          -43 -38 -53 -52 44 -39 57 hvcurveto
          278 hmoveto
          58 42 39 -2 callsubr
          38 -58 -59 -43 -38 -53 -52 -50 callgsubr
          280 hmoveto
          59 42 39 -2 callsubr
          38 -59 -58 -43 -38 -53 -52 44 -39 57 hvcurveto
          hintmask 01101010
          -419 -233 rmoveto
          59 42 38 -2 callsubr
          39 -59 32 callsubr
          hintmask 10110110
          419 -39 -37 callsubr
          52 -42 38 -59 -57 -44 -38 -52 -52 44 -39 57 hvcurveto
          endchar
        </CharString>
        <CharString name="uni05B2">
          0 callsubr
          810 16 callsubr
          hintmask 01010000
          -29 callsubr
          hintmask 10110000
          -655 26 rmoveto
          470 133 -470 hlineto
          655 -431 -23 callgsubr
        </CharString>
        <CharString name="uni05B3">
          0 callsubr
          391 201 218 16 callsubr
          hintmask 01011000
          -29 callsubr
          -421 -269 -37 callsubr
          hvcurveto
          hintmask 00111000
          57 -50 11 -10 136 vhcurveto
          195 133 -471 -133 195 hlineto
          -10 -136 -50 -11 -57 vvcurveto
          hintmask 01011000
          -52 44 -39 56 vhcurveto
          hintmask 10111000
          421 -3 -23 callgsubr
        </CharString>
        <CharString name="uni05B4">
          -1125 -341 -36 callsubr
          -51 44 -40 58 hvcurveto
          endchar
        </CharString>
        <CharString name="uni05B5">
          -1125 -341 182 hstemhm
          393 203 73 16 callsubr
          hintmask 11100000
          -64 callgsubr
          endchar
        </CharString>
        <CharString name="uni05B6">
          -1125 -574 182 51 182 hstemhm
          393 203 -64 202 -65 16 callsubr
          hintmask 11101000
          -64 callgsubr
          hintmask 11010000
          -137 -233 rmoveto
          58 42 38 -2 callsubr
          39 -58 32 callsubr
          endchar
        </CharString>
        <CharString name="uni05B7">
          -1125 -315 133 hstem
          394 478 vstem
          394 -315 -12 callsubr
        </CharString>
        <CharString name="uni05B8">
          -1125 -565 -21 271 133 hstemhm
          532 16 callsubr
          hintmask 11100000
          634 -586 rmoveto
          25 callsubr
          hvcurveto
          172 133 -423 -133 0 callgsubr
          vhcurveto
          endchar
        </CharString>
        <CharString name="uni05B9">
          -60 callgsubr
        </CharString>
        <CharString name="uni05BA">
          -60 callgsubr
        </CharString>
        <CharString name="uni05BB">
          -1125 -803 182 50 180 50 182 hstemhm
          532 203 -62 203 -62 203 -8 callgsubr
          634 -341 rmoveto
          58 43 39 52 53 -43 38 -58 -59 -43 -38 -53 -51 44 -40 58 hvcurveto
          hintmask 11101000
          141 -230 rmoveto
          57 44 37 52 51 -44 40 -57 -59 -43 -38 -53 -51 44 -38 58 hvcurveto
          hintmask 11100100
          141 -232 rmoveto
          59 42 38 -2 callsubr
          39 -59 -81 callgsubr
          endchar
        </CharString>
        <CharString name="uni05BC">
          -1125 512 181 hstem
          232 204 vstem
          334 512 -104 callsubr
          endchar
        </CharString>
        <CharString name="uni05BE">
          -534 23 callgsubr
          60 471 vstem
          531 955 rmoveto
          244 -471 -244 vlineto
          endchar
        </CharString>
        <CharString name="uni05BF">
          -1125 1367 159 hstem
          221 582 vstem
          221 -23 callsubr
          endchar
        </CharString>
        <CharString name="uni05C1">
          -20 callsubr
          1321 204 vstem
          1423 9 callsubr
          rmoveto
          59 29 callsubr
          -59 -81 callgsubr
          endchar
        </CharString>
        <CharString name="uni05C2">
          -20 callsubr
          184 203 vstem
          286 -62 callsubr
          endchar
        </CharString>
        <CharString name="uni05D0">
          251 21 -21 -11 callgsubr
          157 303 -98 callgsubr
          endchar
        </CharString>
        <CharString name="uni05D1">
          -11 2 callsubr
          631 -70 callsubr
          945 255 -83 callgsubr
          endchar
        </CharString>
        <CharString name="uni05D2">
          -216 -4 callsubr
          404 309 hintmask 00000000
          hintmask 01001100
          88 -13 rmoveto
          184 -15 callgsubr
          hintmask 00011100
          71 -303 rlineto
          289 -48 callsubr
          262 -488 vlineto
          hintmask 10001100
          -3 callsubr
          hintmask 00101100
          -283 vlineto
          hintmask 01001100
          -3 24 27 -2 25 hhcurveto
          endchar
        </CharString>
        <CharString name="uni05D2.001">
          -183 -4 callsubr
          438 308 hintmask 00000000
          hintmask 01001100
          122 -13 rmoveto
          183 -15 callgsubr
          hintmask 00011100
          72 -303 rlineto
          288 -48 callsubr
          263 -488 vlineto
          hintmask 10001100
          -50 -128 -97 -70 -151 -2 rrcurveto
          -29 -32 3 5 -34 hvcurveto
          hintmask 00101100
          -283 vlineto
          hintmask 01001100
          -3 24 28 -2 25 hhcurveto
          endchar
        </CharString>
        <CharString name="uni05D3">
          35 -85 callsubr
          568 -31 callsubr
          endchar
        </CharString>
        <CharString name="uni05D4">
          153 -85 callsubr
          141 303 387 -53 callsubr
          -690 -775 -34 callsubr
        </CharString>
        <CharString name="uni05D5">
          -467 21 -21 955 244 hstem
          181 -69 callsubr
          endchar
        </CharString>
        <CharString name="uni05D6">
          -329 -85 callsubr
          68 665 vstem
          -31 callgsubr
          endchar
        </CharString>
        <CharString name="uni05D7">
          172 -85 callsubr
          163.5 313.5 372 315 vstem
          163 18 callsubr
          955 210 hlineto
          108 54 -60 -124 hvcurveto
          -22 callsubr
          -2 -162 154 -314 hhcurveto
          -522 hlineto
          endchar
        </CharString>
        <CharString name="uni05D8">
          183 -24 241 982 38 callgsubr
          417 314 hintmask 10111000
          -77 callgsubr
          hintmask 11011000
          742 -314 -706 vlineto
          hintmask 10111000
          33 callgsubr
          endchar
        </CharString>
        <CharString name="uni05D9">
          -421 23 callgsubr
          239 -70 callsubr
          239 515 -79 callsubr
          endchar
        </CharString>
        <CharString name="uni05DA">
          -56 23 callgsubr
          597 -24 callsubr
          endchar
        </CharString>
        <CharString name="uni05DB">
          7 -19 242 732 -32 callgsubr
          655 -14 callsubr
          413 -19 -88 callgsubr
          endchar
        </CharString>
        <CharString name="uni05DC">
          -10 -85 callsubr
          65 -70 callsubr
          -44 callsubr
          endchar
        </CharString>
        <CharString name="uni05DD">
          224 2 callsubr
          163 314 395 -70 callsubr
          163 hmoveto
          1023 1199 -1023 40 callgsubr
          395 -710 vlineto
          endchar
        </CharString>
        <CharString name="uni05DE">
          237 0 244 730 256 hstem
          914 -86 callgsubr
          endchar
        </CharString>
        <CharString name="uni05DF">
          -471 23 callgsubr
          182 308 vstem
          182 -416 rmoveto
          308 1615 -417 -244 109 hlineto
          endchar
        </CharString>
        <CharString name="uni05E0">
          -306 -20 8 callsubr
          975 244 hstemhm
          342 314 hintmask 01110000
          -35 callgsubr
          hintmask 10110000
          1 callgsubr
          hintmask 01110000
          -19 89 61 -9 79 hhcurveto
          endchar
        </CharString>
        <CharString name="uni05E1">
          200 -24 259 739 256 hstem
          142 313 449 -93 callsubr
          endchar
        </CharString>
        <CharString name="uni05E2">
          158 -11 callgsubr
          806 -70 callsubr
          806 -65 callgsubr
          -703 vlineto
          -133 -59 -88 -102 -42 vhcurveto
          -18 35 -12 40 -10 45 14 callgsubr
          15 -68 40 -60 45 -43 rlinecurve
          -80 12 -92 24 -101 39 -65 -229 rcurveline
          -66 176 160 -22 140 hhcurveto
          347 237 186 355 hvcurveto
          687 vlineto
          endchar
        </CharString>
        <CharString name="uni05E3">
          15 callgsubr
          353 -32 callgsubr
          179 303 329 -80 callgsubr
          endchar
        </CharString>
        <CharString name="uni05E4">
          -40 callsubr
          294 -32 callgsubr
          881 -70 callsubr
          613 -26 -98 callsubr
          endchar
        </CharString>
        <CharString name="uni05E5">
          62 -11 callgsubr
          570 299 vstem
          1157 -65 callgsubr
          -351 hlineto
          -185 -398 -243 398 rlineto
          -349 hlineto
          505 -748 rlineto
          26 -39 10 -34 -41 vvcurveto
          -753 299 719 vlineto
          86 -20 65 -45 68 vhcurveto
          endchar
        </CharString>
        <CharString name="uni05E6">
          81 0 245 954 -20 hstem
          29 1128 vstem
          -63 callsubr
          endchar
        </CharString>
        <CharString name="uni05E7">
          212 -85 callsubr
          173 303 384 -55 callsubr
          -425 -654 -35 callsubr
        </CharString>
        <CharString name="uni05E8">
          -107 -85 callsubr
          571 -50 callsubr
          endchar
        </CharString>
        <CharString name="uni05E8.001">
          -94 callgsubr
        </CharString>
        <CharString name="uni05E8.002">
          -94 callgsubr
        </CharString>
        <CharString name="uni05E8.003">
          -94 callgsubr
        </CharString>
        <CharString name="uni05E8.004">
          -94 callgsubr
        </CharString>
        <CharString name="uni05E9">
          -10 callgsubr
          991 -20 hstem
          163 303 263 304 274 -49 callsubr
          466 1199 -82 callgsubr
          -104 callgsubr
          endchar
        </CharString>
        <CharString name="uni05EA">
          198 -16 callgsubr
          349 315 hintmask 00011110
          712 -65 callgsubr
          -610 -77 callsubr
          155 hlineto
          109 53 -60 -124 hvcurveto
          hintmask 00011110
          -22 callsubr
          -164 154 -314 vhcurveto
          endchar
        </CharString>
        <CharString name="uni05F0">
          191 20 callsubr
          344 -69 callsubr
          658 -955 1 callsubr
        </CharString>
        <CharString name="uni05F1">
          237 20 callsubr
          402 -69 callsubr
          716 -440 -79 callsubr
          endchar
        </CharString>
        <CharString name="uni05F2">
          283 23 callgsubr
          239 314 390 -70 callsubr
          239 515 -79 callsubr
          704 -440 -79 callsubr
          endchar
        </CharString>
        <CharString name="uni05F3">
          -661 861 589 hstem
          123 279 vstem
          208 861 rmoveto
          113 96 81 166 148 vvcurveto
          1 179 rlineto
          -280 -207 hlineto
          -101 -41 -120 -63 -87 vhcurveto
          endchar
        </CharString>
        <CharString name="uni05F4">
          -190 861 589 hstem
          149 279.5 147.5 279.5 vstem
          234 861 rmoveto
          113 96 80 -6 callsubr
          -41 -120 -63 -87 vhcurveto
          616 -74 rmoveto
          112 96 81 -6 callsubr
          -42 -120 -63 -87 vhcurveto
          endchar
        </CharString>
        <CharString name="uni1E9E">
          274 -21 243 -201 -21 12 callsubr
          -20 29 -17 callgsubr
          87 302 622 301 hintmask 01101100
          915 849 rmoveto
          324 376 rlineto
          hintmask 01111100
          155 -199 -192 97 -247 hhcurveto
          -344 -169 -176 -343 -1 hvcurveto
          -958 302 956 vlineto
          199 80 79 132 114 80 -40 -51 69 vhcurveto
          -263 -297 rlineto
          -189 134 vlineto
          180 96 -60 -177 hvcurveto
          hintmask 10101100
          -122 -87 -76 -148 -91 -80 29 18 -43 vhcurveto
          -86 -230 rlineto
          -34 83 106 -26 148 hhcurveto
          275 224 148 294 hvcurveto
          hintmask 01101100
          244 -143 147 -254 37 vhcurveto
          endchar
        </CharString>
        <CharString name="uni1E9E.smcp">
          12 -21 235 -214 -21 21 39 -18 -21 945 235 hstemhm
          95 294 399 293 hintmask 00011110
          769 675 rmoveto
          220 260 rlineto
          158 -124 -141 87 -192 hhcurveto
          -284 -152 -148 -289 -1 hvcurveto
          -743 294 741 vlineto
          138 57 66 81 55 44 -25 -35 35 vhcurveto
          -167 -208 rlineto
          -186 82 vlineto
          135 77 -36 -102 hvcurveto
          hintmask 10001110
          -85 -50 -54 -80 -52 -45 28 19 -24 vhcurveto
          hintmask 00101110
          -86 -222 rlineto
          hintmask 01001110
          -34 60 77 -26 106 hhcurveto
          211 176 126 249 hvcurveto
          hintmask 00011110
          173 -114 110 -198 38 vhcurveto
          endchar
        </CharString>
        <CharString name="uni200C">
          -1125 -200 1392 hstem
          -684 212 vstem
          -684 1192 rmoveto
          -1392 212 1392 vlineto
          endchar
        </CharString>
        <CharString name="uni200D">
          -1125 1220 -20 hstem
          -685 212 vstem
          -255 1397 rmoveto
          -156 149 -168 -172 -168 172 -156 -149 173 -177 -173 -177 156 -149 62 63 rlineto
          -1157 212 1157 vlineto
          62 -63 156 149 -173 177 rlineto
          endchar
        </CharString>
        <CharString name="uni200E">
          39 callsubr
          -887 212 vstem
          -360 1535 rmoveto
          -232 hlineto
          141 -164 rlineto
          -436 -1571 212 1375 221 hlineto
          -140 -161 rlineto
          233 hlineto
          205 259 rlineto
          endchar
        </CharString>
        <CharString name="uni200F">
          39 callsubr
          -492 212 vstem
          -715 1371 rmoveto
          140 164 rlineto
          -232 hlineto
          -203 -262 205 -259 rlineto
          232 hlineto
          -140 161 rlineto
          221 -1375 212 1571 hlineto
          endchar
        </CharString>
        <CharString name="uni2070">
          656 -68 callgsubr
          975 -100 callsubr
        </CharString>
        <CharString name="uni2074">
          826 171 459 -20 -21 callsubr
          997 -93 callgsubr
        </CharString>
        <CharString name="uni2075">
          656 169 219 -47 callsubr
          1048 -99 callgsubr
        </CharString>
        <CharString name="uni2076">
          656 -75 callgsubr
          1194 -101 callgsubr
        </CharString>
        <CharString name="uni2077">
          1287 -30 callgsubr
          1339 -74 callsubr
        </CharString>
        <CharString name="uni2078">
          656 -86 callsubr
          1074 -105 callsubr
        </CharString>
        <CharString name="uni2079">
          654 -76 callsubr
          1468 -101 callsubr
        </CharString>
        <CharString name="uni2080">
          -372 -68 callgsubr
          -53 -100 callsubr
        </CharString>
        <CharString name="uni2081">
          -361 27 callgsubr
          -361 rmoveto
          -61 callsubr
        </CharString>
        <CharString name="uni2082">
          -361 -47 callgsubr
          -361 rmoveto
          -92 callgsubr
        </CharString>
        <CharString name="uni2083">
          -372 -76 callgsubr
          44 -96 callsubr
        </CharString>
        <CharString name="uni2084">
          -202 171 -21 callsubr
          -31 -93 callgsubr
        </CharString>
        <CharString name="uni2085">
          -372 169 203 -21 37 -47 callsubr
          20 -99 callgsubr
        </CharString>
        <CharString name="uni2086">
          -372 -75 callgsubr
          166 -101 callgsubr
        </CharString>
        <CharString name="uni2087">
          259 -30 callgsubr
          311 -74 callsubr
        </CharString>
        <CharString name="uni2088">
          -372 -86 callsubr
          46 -105 callsubr
        </CharString>
        <CharString name="uni2089">
          -374 -76 callsubr
          440 -101 callsubr
        </CharString>
        <CharString name="uni20AA">
          801 0 252.5 696.5 252 hstem
          133 289 167 288 142 288 168 288 vstem
          133 hmoveto
          289 949 597 -259 hlineto
          -79 -11 -101 -17 -79 vhcurveto
          15 -12 250 40 rlineto
          35 77 16 111 71 vvcurveto
          483 -1174 vlineto
          456 -1201 rmoveto
          549 hlineto
          400 228 206 345 -3 hvcurveto
          650 -288 -657 vlineto
          -190 -142 -103 -185 1 vhcurveto
          -271 1 rlineto
          514 -288 vlineto
          endchar
        </CharString>
        <CharString name="uniFB1F">
          283 -315 133 1137 -32 callgsubr
          239 314 390 -70 callsubr
          239 515 -79 callsubr
          704 -440 -79 callsubr
          -786 -1270 -12 callsubr
        </CharString>
        <CharString name="uniFB20">
          189 1199 -20 hstemhm
          821.5 313.5 hintmask 00000000
          hintmask 11000000
          837 -65 callgsubr
          -31 -705 -5 -125 -50 -86 -90 -44 rlinecurve
          -17 33 -11 38 -9 43 14 callgsubr
          16 -70 43 -63 47 -43 rlinecurve
          -86 10 -100 25 -112 43 -65 -229 rcurveline
          -65 176 160 -32 140 hhcurveto
          347 221 195 356 16 hvcurveto
          30 688 rlineto
          endchar
        </CharString>
        <CharString name="uniFB21">
          759 21 -21 -11 callgsubr
          195 -49 callsubr
          1809 -65 callgsubr
          -350 hlineto
          -295 -612 -642 612 rlineto
          -414 hlineto
          263 -254 rlineto
          -119 -81 -57 -124 -174 vvcurveto
          -566 303 564 vlineto
          98 10 71 20 61 vhcurveto
          825 -794 rlineto
          426 hlineto
          -393 374 rlineto
          endchar
        </CharString>
        <CharString name="uniFB22">
          315 21 -74 callgsubr
          -232 232 hstemhm
          800 314 hintmask 11010000
          60 -65 callgsubr
          -244 740 -955 314 vlineto
          hintmask 10110000
          939 vlineto
          258 28 rlineto
          hintmask 11010000
          232 vlineto
          endchar
        </CharString>
        <CharString name="uniFB23">
          538 -85 callsubr
          141 308 767 -70 callsubr
          1216 -4 callgsubr
          -919 -244 897 hlineto
          112 62 -57 -106 hvcurveto
          -1075 -792 rmoveto
          308 395 hlineto
          90 20 120 9 49 vhcurveto
          -14 12 -281 -39 rlineto
          -3 -9 -39 -95 -125 vvcurveto
          endchar
        </CharString>
        <CharString name="uniFB24">
          429 -38 254 739 -32 callgsubr
          1077 -14 callsubr
          665 -38 rmoveto
          445 278 177 372 2 hvcurveto
          688 -1279 -244 966 -443 vlineto
          -191 -2 -121 -105 -300 hhcurveto
          -133 -203 21 43 -209 hvcurveto
          -45 -244 rlineto
          -49 207 226 -25 168 hhcurveto
          endchar
        </CharString>
        <CharString name="uniFB25">
          333 21 -74 callgsubr
          267 -20 hstem
          65 -70 callsubr
          1388 -65 callgsubr
          -1009 267 -314 -511 949 hlineto
          -536 -955 rlineto
          332 hlineto
          578 998 rlineto
          endchar
        </CharString>
        <CharString name="uniFB26">
          697 2 callsubr
          152 314 885 -70 callsubr
          152 hmoveto
          1513 1199 -1513 40 callgsubr
          885 -710 vlineto
          endchar
        </CharString>
        <CharString name="uniFB27">
          263 -85 callsubr
          941 -70 callsubr
          941 -4 callgsubr
          -754 -244 732 hlineto
          113 -2 callgsubr
        </CharString>
        <CharString name="uniFB28">
          694 -16 callgsubr
          846 313 hintmask 00011110
          1209 -65 callgsubr
          -1107 -77 callsubr
          651 hlineto
          108 55 -60 -124 hvcurveto
          hintmask 00011110
          1 -771 rlineto
          312 745 hlineto
          300 -164 154 -312 vhcurveto
          endchar
        </CharString>
        <CharString name="uniFB29">
          -21 551 260 395 -20 hstem
          410 283 vstem
          410 1206 rmoveto
          -395 -357 -260 998 260 -358 395 vlineto
          endchar
        </CharString>
        <CharString name="uniFB2A">
          -10 callgsubr
          991 -38 callgsubr
          263 304 274 303 -268 204 hintmask 00000000
          hintmask 11111010
          -65 callsubr
          hintmask 11111100
          -104 callgsubr
          endchar
        </CharString>
        <CharString name="uniFB2B">
          -10 callgsubr
          991 -38 callgsubr
          -264 203 324 304 274 303 hintmask 00000000
          hintmask 11101110
          304 -62 callsubr
          hintmask 11110110
          162 -13 callgsubr
          -104 callgsubr
          endchar
        </CharString>
        <CharString name="uniFB2C">
          -10 callgsubr
          305 181 505 -38 callgsubr
          263 40 callsubr
          -268 204 hintmask 0000000000000000
          hintmask 1111110010000000
          -65 callsubr
          hintmask 1111111100000000
          -104 callgsubr
          477 131 -104 callsubr
          endchar
        </CharString>
        <CharString name="uniFB2D">
          -10 callgsubr
          305 181 505 -38 callgsubr
          -264 203 324 40 callsubr
          hintmask 0000000000000000
          hintmask 1111011010000000
          304 -62 callsubr
          hintmask 1111101110000000
          162 -13 callgsubr
          -104 callgsubr
          477 131 -104 callsubr
          endchar
        </CharString>
        <CharString name="uniFB2E">
          251 -315 133 203 -21 -11 callgsubr
          157 303 -98 callgsubr
          -483 -820 -12 callsubr
        </CharString>
        <CharString name="uniFB2F">
          251 -565 -21 271 133 203 -21 -11 callgsubr
          157 303 135 203 -98 callgsubr
          -455 -820 rmoveto
          0 callgsubr
          25 callsubr
          vhcurveto
          172 133 -423 hlineto
          endchar
        </CharString>
        <CharString name="uniFB30">
          251 21 -21 73 181 945 -20 hstem
          157 303 60 204 -98 callgsubr
          -318 -251 rmoveto
          -58 -44 -38 -53 -51 44 -39 58 59 -11 callsubr
          38 -59 hvcurveto
          endchar
        </CharString>
        <CharString name="uniFB31">
          -11 0 245 268 -51 callsubr
          hstem
          246 204 181 -70 callsubr
          945 255 -83 callgsubr
          -634 369 -58 callsubr
        </CharString>
        <CharString name="uniFB32">
          -216 26 callsubr
          513 181 261 244 hstemhm
          66 204 134 309 hintmask 00000000
          hintmask 01001101
          88 -13 rmoveto
          184 -15 callgsubr
          hintmask 00011101
          71 -303 rlineto
          289 -48 callsubr
          262 -488 vlineto
          hintmask 10001101
          -3 callsubr
          hintmask 00101101
          -283 vlineto
          hintmask 01001101
          -3 24 27 -2 25 hhcurveto
          hintmask 00011111
          80 526 -104 callsubr
          endchar
        </CharString>
        <CharString name="uniFB33">
          35 21 -66 callsubr
          hstem
          189 204 175 -31 callsubr
          -801 -686 -104 callsubr
          endchar
        </CharString>
        <CharString name="uniFB34">
          153 21 -66 callsubr
          hstem
          141 303 92 204 91 -53 callsubr
          -193 -262 -104 callsubr
          -497 -513 -34 callsubr
        </CharString>
        <CharString name="uniFB35">
          -467 21 -66 callsubr
          hstem
          -78 204 55 -69 callsubr
          -157 -442 -104 callsubr
          endchar
        </CharString>
        <CharString name="uniFB36">
          -329 21 -66 callsubr
          hstemhm
          68 680 -204 204 hintmask 11110000
          -31 callgsubr
          hintmask 11101000
          511 -433 -104 callsubr
          endchar
        </CharString>
        <CharString name="uniFB38">
          183 -24 241 296 181 505 38 callgsubr
          107 204 106 314 hintmask 11011010
          -77 callgsubr
          hintmask 11101010
          742 -314 -706 vlineto
          hintmask 11011010
          33 callgsubr
          hintmask 11011110
          537 vmoveto
          59 -11 callsubr
          -94 callsubr
          44 -39 58 hvcurveto
          endchar
        </CharString>
        <CharString name="uniFB39">
          -421 668 181 106 -32 callgsubr
          -47 204 82 -70 callsubr
          239 515 -79 callsubr
          -184 -287 -104 callsubr
          endchar
        </CharString>
        <CharString name="uniFB3A">
          -56 577 181 197 -32 callgsubr
          203 204 190 -24 callsubr
          -292 -378 -104 callsubr
          endchar
        </CharString>
        <CharString name="uniFB3B">
          7 -19 242 290 -51 callsubr
          hstem
          260 204 191 -14 callsubr
          413 -19 -88 callgsubr
          -51 532 -104 callsubr
          endchar
        </CharString>
        <CharString name="uniFB3C">
          -10 21 -21 568 181 206 244 hstemhm
          65 314 -187 204 hintmask 11110000
          -44 callsubr
          hintmask 11101000
          -649 -340 -58 callsubr
        </CharString>
        <CharString name="uniFB3E">
          237 0 244 269 181 280 256 hstem
          619 204 91 -86 callgsubr
          489 -162 -104 callsubr
          endchar
        </CharString>
        <CharString name="uniFB40">
          -306 -20 8 callsubr
          533 -51 callsubr
          hstemhm
          36 204 102 314 hintmask 01110100
          -35 callgsubr
          hintmask 10110100
          1 callgsubr
          hintmask 01110100
          -19 89 61 -9 79 hhcurveto
          hintmask 01111100
          -151 533 -104 callsubr
          endchar
        </CharString>
        <CharString name="uniFB41">
          200 -24 259 278 181 280 256 hstem
          142 313 123 204 122 -93 callsubr
          1 278 -104 callsubr
          endchar
        </CharString>
        <CharString name="uniFB43">
          15 callgsubr
          72 181 100 -32 callgsubr
          179 303 65 204 60 -80 callgsubr
          -472 1090 -104 callsubr
          endchar
        </CharString>
        <CharString name="uniFB44">
          -40 callsubr
          32 181 81 -32 callgsubr
          588 204 89 -70 callsubr
          613 -26 -98 callsubr
          77 719 -104 callsubr
          endchar
        </CharString>
        <CharString name="uniFB46">
          81 0 245 93 181 680 -20 hstemhm
          29 1128 -966 204 hintmask 11110000
          -63 callsubr
          hintmask 11101000
          -413 -101 -58 callsubr
        </CharString>
        <CharString name="uniFB47">
          212 21 -66 callsubr
          hstem
          173 303 89 204 91 -55 callsubr
          69 275 -104 callsubr
          -494 -929 -35 callsubr
        </CharString>
        <CharString name="uniFB48">
          -107 21 -66 callsubr
          hstem
          182 204 185 -50 callsubr
          -287 -279 -104 callsubr
          endchar
        </CharString>
        <CharString name="uniFB49">
          -10 callgsubr
          305 181 505 -20 hstem
          163 303 263 40 callsubr
          vstem
          466 1199 -82 callgsubr
          -104 callgsubr
          477 131 -104 callsubr
          endchar
        </CharString>
        <CharString name="uniFB4A">
          198 27 callsubr
          513 181 261 244 hstemhm
          221 305 70 204 75 315 hintmask 0001111110000000
          712 -65 callgsubr
          -610 -244 187 hlineto
          -47 -76 -21 -118 -80 vvcurveto
          -291 vlineto
          hintmask 1000111110000000
          -106 -51 -48 -94 -23 -21 1 1 -22 vhcurveto
          hintmask 0010111110000000
          -242 vlineto
          hintmask 0100111110000000
          -9 53 42 -5 57 hhcurveto
          229 135 141 243 hvcurveto
          343 vlineto
          78 12 94 20 74 vhcurveto
          155 hlineto
          109 53 -60 -124 hvcurveto
          hintmask 0001111110000000
          -22 callsubr
          -164 154 -314 vhcurveto
          -14 -686 -104 callsubr
          endchar
        </CharString>
        <CharString name="uniFB4B">
          -467 21 -74 callgsubr
          153 182 hstemhm
          181 314 -308 16 callsubr
          hintmask 11101000
          289 9 callsubr
          rmoveto
          59 42 38 -2 callsubr
          39 -59 -81 callgsubr
          hintmask 11110000
          -108 -1352 1 callsubr
        </CharString>
        <CharString name="uniFB4C">
          -11 0 245 710 16 callgsubr
          631 -70 callsubr
          800 1526 rmoveto
          -582 -159 582 hlineto
          145 -1112 -83 callgsubr
          endchar
        </CharString>
        <CharString name="uniFB4D">
          7 -19 242 732 16 callgsubr
          655 -14 callsubr
          228 -23 callsubr
          185 -1545 -88 callgsubr
          endchar
        </CharString>
        <CharString name="uniFB4E">
          -40 callsubr
          294 16 callgsubr
          881 -70 callsubr
          369 -23 callsubr
          244 -1552 -98 callsubr
          endchar
        </CharString>
        <CharString name="uniFB4F">
          142 21 -21 1199 -20 287 -20 hstem
          65 -70 callsubr
          1192 -65 callgsubr
          -351 hlineto
          -206 -425 -256 371 rlineto
          321 -314 -375 vlineto
          755 -1091 rlineto
          349 hlineto
          -343 497 rlineto
          endchar
        </CharString>
        <CharString name="v">
          -83 -17 callsubr
          10 1018 vstem
          712 36 callgsubr
          -192 -716 -193 716 rlineto
          -317 hlineto
          363 -1082 rlineto
          293 hlineto
          362 1082 rlineto
          endchar
        </CharString>
        <CharString name="w">
          376 -17 callsubr
          27 1443 vstem
          1180 36 callgsubr
          -133 -672 -191 672 rlineto
          -216 hlineto
          -190 -673 -133 673 rlineto
          -290 hlineto
          270 -1082 rlineto
          253 hlineto
          198 664 199 -664 rlineto
          253 hlineto
          270 1082 rlineto
          endchar
        </CharString>
        <CharString name="x">
          -79 -17 callsubr
          19 1015 vstem
          526 769 rmoveto
          -171 313 rlineto
          -322 hlineto
          301 -528 -315 -554 rlineto
          322 hlineto
          186 333 187 -333 rlineto
          320 hlineto
          -315 554 302 528 rlineto
          -320 hlineto
          endchar
        </CharString>
        <CharString name="y">
          -88 -437 246 -246 1519 hstemhm
          2 1035 hintmask 01100000
          714 1082 -60 callsubr
          hintmask 10100000
          -84 callsubr
        </CharString>
        <CharString name="yacute">
          -88 -437 246 1416 -33 callsubr
          2 1035 vstem
          896 19 callgsubr
          -85 callgsubr
          96 -143 -60 callsubr
          -84 callsubr
        </CharString>
        <CharString name="ydieresis">
          -88 -437 246 1427 259 hstemhm
          2 1035 hintmask 00000000
          hintmask 11100000
          274 1236 -103 callsubr
          -56 -154 -60 callsubr
          -84 callsubr
        </CharString>
        <CharString name="yen">
          -24 21 -21 273 179 110 180 714 -20 hstem
          390 -14 callsubr
          1090 -33 callgsubr
          -324 hlineto
          -214 -551 -216 551 rlineto
          -325 hlineto
          318 -714 rlineto
          -244 -180 305 -110 -305 -179 305 -273 313 273 284 179 -284 110 284 180 -213 hlineto
          endchar
        </CharString>
        <CharString name="yen.smcp">
          -188 21 -21 219 173 67 175 hstem
          314 -58 callgsubr
          930 -18 callgsubr
          -316 hlineto
          -146 -432 -145 432 rlineto
          -317 hlineto
          223 -531 rlineto
          -182 -175 255 hlineto
          12 -28 rlineto
          -39 -267 -173 267 -219 302 219 266 173 -266 25 vlineto
          18 42 rlineto
          248 175 -175 hlineto
          endchar
        </CharString>
        <CharString name="z">
          -79 0 243 596 -18 callsubr
          72 904 vstem
          459 243 rmoveto
          502 664 rlineto
          175 -872 -243 483 vlineto
          -500 -658 rlineto
          -181 904 243 vlineto
          endchar
        </CharString>
        <CharString name="zero">
          53 -20 243 1010 -18 callsubr
          93 302 388 -58 callgsubr
          1085 600 rmoveto
          258 vlineto
          431 -202 187 -294 -295 -201 -187 -431 vhcurveto
          -258 vlineto
          -431 203 -189 295 294 200 189 431 vhcurveto
          -302 299 rmoveto
          -339 vlineto
          -251 -70 -86 -122 -123 -73 86 251 vhcurveto
          339 vlineto
          248 71 86 123 122 72 -86 -248 vhcurveto
          endchar
        </CharString>
        <CharString name="zero.frac">
          653 -68 callgsubr
          972 -100 callsubr
        </CharString>
        <CharString name="zero.smcp">
          -58 18 callgsubr
          711 -18 callsubr
          77 302 309 -58 callgsubr
          990 458 rmoveto
          245 vlineto
          322 -189 156 -268 -270 -186 -156 -322 vhcurveto
          -245 vlineto
          -324 188 -150 270 268 187 150 324 vhcurveto
          -302 257 rmoveto
          -267 vlineto
          -168 -58 -53 -95 -97 -59 53 168 vhcurveto
          267 vlineto
          162 57 61 97 96 59 -61 -162 vhcurveto
          endchar
        </CharString>
        <CharString name="zero.sup">
          -11 -68 callgsubr
          308 -100 callsubr
        </CharString>
        <CharString name="zero.tnum">
          103 endchar
        </CharString>
      <CharString index="0">
        rmoveto
        63 vlineto
        444 -257 273 -368 -368 -256 -273 -444 vhcurveto
        -63 vlineto
        -444 258 -272 368 368 255 272 444 vhcurveto
        -318 65 rmoveto
        -65 vlineto
        -295 -109 -164 -196 -197 -111 164 295 vhcurveto
        65 vlineto
        298 109 159 197 195 112 -159 -298 vhcurveto
        endchar
      </CharString>
      <CharString index="1">
        rmoveto
        43 vlineto
        355 -228 222 -320 -323 -224 -222 -355 vhcurveto
        -43 vlineto
        -356 226 -221 323 320 226 221 356 vhcurveto
        -303 44 rmoveto
        -44 vlineto
        -211 -90 -125 -153 -159 -87 125 211 vhcurveto
        44 vlineto
        213 85 122 159 154 91 -122 -213 vhcurveto
        endchar
      </CharString>
      <CharString index="2">
        rmoveto
        322 -170 209 -311 -320 -189 -236 -323 vhcurveto
        -38 vlineto
        -288 201 -237 341 211 144 97 97 68 vhcurveto
        -145 167 rlineto
        -81 -64 -93 -37 -101 hhcurveto
        -142 -92 87 133 -21 hvcurveto
        683 hlineto
        -296 202 rmoveto
        -385 hlineto
        126 19 58 88 121 hhcurveto
        127 58 -78 -112 2 hvcurveto
        endchar
      </CharString>
      <CharString index="3">
        418 345 190 392 hvcurveto
        654 -303 -619 vlineto
        -259 -197 -113 -276 -114 -141 33 48 -113 vhcurveto
        223 93 rmoveto
        255 -1 rlineto
        56 66 33 127 135 vvcurveto
        490 -304 -556 vlineto
        -108 -14 -103 -26 -50 vhcurveto
        return
      </CharString>
      <CharString index="4">
        rmoveto
        -81 -60 -57 -73 -72 60 -57 81 81 61 57 72 73 -61 57 -81 35 callsubr
        -1 rmoveto
        -81 -61 -56 -73 -73 61 -56 81 81 61 56 73 73 -61 56 -81 hvcurveto
        return
      </CharString>
      <CharString index="5">
        304 hlineto
        -463 -40 callgsubr
        rlineto
        -286 hlineto
        -459 -1165 rlineto
        304 hlineto
        78 216 rlineto
        442 hlineto
        -363 218 rmoveto
        139 383 143 -383 rlineto
        endchar
      </CharString>
      <CharString index="6">
        rmoveto
        -74 -59 -26 -38 -41 hvcurveto
        146 26 115 25 136 hhcurveto
        11 173 -35 hlineto
        -243 -226 -117 -327 hvcurveto
        -50 vlineto
        -229 143 -95 187 181 131 117 157 158 -90 106 -162 vhcurveto
        -67 -370 rmoveto
        -75 -38 36 82 hvcurveto
        40 vlineto
        23 18 39 22 55 hhcurveto
        66 43 -27 -67 -60 -45 -49 -63 hvcurveto
        endchar
      </CharString>
      <CharString index="7">
        -307 280 rlineto
        -174 hlineto
        -303 -276 rlineto
        -16 235 vlineto
        return
      </CharString>
      <CharString index="8">
        rmoveto
        167 -41 rlineto
        12 16 30 25 66 hhcurveto
        79 38 -43 -67 -57 -20 -52 -81 -61 -40 17 50 -1 hvcurveto
        -211 hlineto
        -145 1 154 -91 158 hhcurveto
        212 99 138 140 162 -95 91 -176 -56 -56 -20 -7 -18 hvcurveto
        20 131 rlineto
        335 165 -506 hlineto
        endchar
      </CharString>
      <CharString index="9">
        vstem
        1302 -65 callgsubr
        -352 hlineto
        -202 -417 -289 417 rlineto
        -351 hlineto
        265 -381 rlineto
        -153 -73 -63 -128 -220 vvcurveto
        -397 303 532 vlineto
        47 10 35 24 29 vhcurveto
        446 -643 rlineto
        350 hlineto
        -350 505 rlineto
        return
      </CharString>
      <CharString index="10">
        53 -20 243 401 244 366 -17 callgsubr
        92 303 -271 302 327 302 -272 302 hintmask 00000000
        hintmask 11100010
        858 750 rmoveto
        hintmask 11101100
        122 65 75 113 141 vvcurveto
        264 -194 144 -272 -270 -195 -144 -264 -140 75 -113 122 -65 vhcurveto
        hintmask 11110010
        -140 -67 -89 -123 -161 vvcurveto
        -277 215 -143 283 285 210 143 277 vhcurveto
        hintmask 11100010
        161 -88 122 -139 67 vhcurveto
        hintmask 11101100
        -269 484 rmoveto
        104 60 -72 -109 -111 -58 -74 -105 -104 -60 74 111 112 60 69 103 hvcurveto
        hintmask 11110010
        1 -1011 rmoveto
        -118 -77 76 124 126 77 75 116 117 78 -75 -126 -124 -75 -76 -118 hvcurveto
        endchar
      </CharString>
      <CharString index="11">
        rmoveto
        -303 -752 hlineto
        -132 -65 -54 -124 -123 -70 54 132 vhcurveto
        752 -302 -752 vlineto
        -277 201 -152 294 297 195 152 277 vhcurveto
        endchar
      </CharString>
      <CharString index="12">
        rmoveto
        hintmask 10111000
        -761 vlineto
        -60 -33 -61 -37 -99 hhcurveto
        -89 -60 46 110 hvcurveto
        702 -301 -700 vlineto
        -286 146 -116 214 129 98 49 83 67 vhcurveto
        hintmask 01111000
        8 -112 rlineto
        283 1082 hlineto
        endchar
      </CharString>
      <CharString index="13">
        -77 -85 callsubr
        624 -70 callsubr
        624 18 callsubr
        776 24 callgsubr
        -174 157 -291 vhcurveto
        -385 -244 362 hlineto
        113 -2 callgsubr
      </CharString>
      <CharString index="14">
        rmoveto
        -85 459 -211 hlineto
        -355 -491 13 -139 rlineto
        342 -159 211 159 85 hlineto
        -451 171 rmoveto
        140 181 15 23 rlineto
        -204 vlineto
        endchar
      </CharString>
      <CharString index="15">
        168 -345 vlineto
        102 80 rlineto
        150 115 71 70 118 vvcurveto
        160 -114 90 -199 -187 -118 -126 -150 vhcurveto
        211 hlineto
        56 34 51 70 62 31 -32 -49 -30 -32 -61 -72 -63 vhcurveto
        -286 -255 rlineto
        -142 vlineto
        endchar
      </CharString>
      <CharString index="16">
        -81 callsubr
        -53 return
      </CharString>
      <CharString index="17">
        rmoveto
        -83 callsubr
        hintmask 11010101
        -45 callgsubr
        -95 callsubr
        -21 callgsubr
        hintmask 11101010
        -78 callgsubr
        hintmask 11101001
        return
      </CharString>
      <CharString index="18">
        rmoveto
        243 -865 -1165 862 243 -559 237 474 244 -474 198 vlineto
        endchar
      </CharString>
      <CharString index="19">
        rmoveto
        336 219 161 390 hvcurveto
        667 -858 -244 545 -477 vlineto
        -167 -87 -87 -197 -1 vhcurveto
        -72 -86 11 22 -101 hvcurveto
        -48 -228 rlineto
        -30 126 117 -17 106 hhcurveto
        return
      </CharString>
      <CharString index="20">
        -29 -20 229 -208 -21 41 -21 488 173 219 222 return
      </CharString>
      <CharString index="21">
        315 vstem
        155 hmoveto
        310 hlineto
        71 715 rlineto
        167 17 63 92 113 hhcurveto
        117 68 -93 -160 hvcurveto
        1 -477 rlineto
        -211 -244 525 679 hlineto
        362 -2 -193 189 -364 hhcurveto
        -186 -225 -39 -56 -154 hvcurveto
        67 -228 50 20 84 25 53 8 rlinecurve
        1 -5 -5 -2 -5 -5 -4 -4 rlinecurve
        -56 -56 -45 -105 -13 -108 rrcurveto
        return
      </CharString>
      <CharString index="22">
        rmoveto
        -326 hlineto
        -197 -311 rlineto
        245 hlineto
        return
      </CharString>
      <CharString index="23">
        796 1476 rmoveto
        -392 -318 -324 -423 -423 318 -326 392 391 319 326 423 423 -319 324 -391 hvcurveto
        -1371 vmoveto
        -325 -263 271 353 353 263 269 325 324 263 -269 -353 -353 -263 -271 -324 hvcurveto
        return
      </CharString>
      <CharString index="24">
        rmoveto
        505 vlineto
        279 -177 160 -306 vhcurveto
        -345 -244 323 hlineto
        128 63 -59 -121 hvcurveto
        -530 -578 -245 1031 234 vlineto
        return
      </CharString>
      <CharString index="25">
        rmoveto
        -303 -1079 hlineto
        -104 217 248 -53 219 hhcurveto
        return
      </CharString>
      <CharString index="26">
        -58 -44 -39 -59 callsubr
        return
      </CharString>
      <CharString index="27">
        310 vstem
        1121 -65 callgsubr
        -989 -244 124 hlineto
        -50 -79 -28 -141 1 -128 rrcurveto
        -153 vlineto
        105 -65 154 -23 151 25 rrcurveto
        211 vlineto
        -36 -1 -41 3 -30 8 rrcurveto
        99 vlineto
        81 14 87 29 76 vhcurveto
        286 -1371 310 hlineto
        return
      </CharString>
      <CharString index="28">
        99 -7 42 -16 -53 vvcurveto
        -57 -45 -23 -62 vhcurveto
        7 -174 rlineto
        234 122 97 145 return
      </CharString>
      <CharString index="29">
        133 96 122 146 hvcurveto
        return
      </CharString>
      <CharString index="30">
        686 -24 rmoveto
        313 209 207 310 hvcurveto
        334 vlineto
        241 -128 145 -212 -79 -99 -28 -41 -71 vhcurveto
        30 -201 rlineto
        10 42 36 6 31 hhcurveto
        91 45 -52 -105 hvcurveto
        -345 vlineto
        -144 -84 -96 -125 -124 -84 96 144 vhcurveto
        return
      </CharString>
      <CharString index="31">
        169 176 138 160 169 hstemhm
        47 211 -197 210 201 210 -196 211 hintmask 11110010
        547 return
      </CharString>
      <CharString index="32">
        168 203 167 107 173 hstem
        69 210 221 211 vstem
        459 return
      </CharString>
      <CharString index="33">
        -21 -73 callgsubr
        return
      </CharString>
      <CharString index="34">
        955 244 return
      </CharString>
      <CharString index="35">
        -164 -30 141 164 hvcurveto
        26 vlineto
        160 32 145 160 114 60 -82 -102 1 vhcurveto
        283 hlineto
        return
      </CharString>
      <CharString index="36">
        rmoveto
        -129 -107 -51 -94 -75 hvcurveto
        -10 125 rlineto
        -283 -1082 302 762 hlineto
        59 35 57 37 81 hhcurveto
        107 61 -36 -135 hvcurveto
        -687 302 686 vlineto
        309 -137 107 -204 vhcurveto
        endchar
      </CharString>
      <CharString index="37">
        -155 234 155 vlineto
        126 41 88 47 78 vhcurveto
        -139 80 rlineto
        -98 -86 -85 -154 -132 vvcurveto
        return
      </CharString>
      <CharString index="38">
        -208 -80 142 304 hvcurveto
        91 vlineto
        309 95 137 194 195 71 -92 -169 11 vhcurveto
        313 hlineto
        299 -27 -195 219 -368 hhcurveto
        -368 -239 -272 -433 hvcurveto
        -89 vlineto
        return
      </CharString>
      <CharString index="39">
        169 473 169 hstem
        71 210 202 210 vstem
        693 return
      </CharString>
      <CharString index="40">
        -165 -64 98 233 hvcurveto
        49 vlineto
        228 76 104 149 160 58 -86 -99 4 -45 callsubr
        245 -24 -173 183 -327 hhcurveto
        -318 -209 -218 -358 hvcurveto
        -48 vlineto
        return
      </CharString>
      <CharString index="41">
        -139 0 243 237 244 198 243 return
      </CharString>
      <CharString index="42">
        1199 rmoveto
        return
      </CharString>
      <CharString index="43">
        495 -5 callgsubr
        -51 44 -40 58 hvcurveto
        276 hmoveto
        11 callsubr
        45 -40 57 hvcurveto
        return
      </CharString>
      <CharString index="44">
        104 45 -85 126 hhcurveto
        return
      </CharString>
      <CharString index="45">
        21 -21 862 220 231 -32 callgsubr
        185 302 return
      </CharString>
      <CharString index="46">
        452 hlineto
        395 275 281 415 hvcurveto
        64 vlineto
        414 -275 282 -393 vhcurveto
        349 -760 rmoveto
        -287 -122 -156 -229 vhcurveto
        -138 return
      </CharString>
      <CharString index="47">
        -20 callsubr
        201 203 vstem
        303 9 callsubr
        rmoveto
        59 42 38 -2 callsubr
        39 -59 -81 callgsubr
        endchar
      </CharString>
      <CharString index="48">
        91 -16 241 715 241 return
      </CharString>
      <CharString index="49">
        302 vstem
        return
      </CharString>
      <CharString index="50">
        hstem
        60 303 489 -49 callsubr
        return
      </CharString>
      <CharString index="51">
        hstem
        17 callgsubr
        426 -58 callgsubr
        return
      </CharString>
      <CharString index="52">
        407 hlineto
        335 242 234 327 hvcurveto
        43 vlineto
        327 -241 234 -340 vhcurveto
        278 -604 rmoveto
        -217 -73 -101 -201 vhcurveto
        -104 return
      </CharString>
      <CharString index="53">
        -20 23 callsubr
        41 7 callsubr
        hstemhm
        return
      </CharString>
      <CharString index="54">
        -73 callsubr
        -313 -56 callsubr
        vlineto
        endchar
      </CharString>
      <CharString index="55">
        hstem
        113 315 496 -70 callsubr
        return
      </CharString>
      <CharString index="56">
        173 414 172 return
      </CharString>
      <CharString index="57">
        44 -39 58 hvcurveto
        return
      </CharString>
      <CharString index="58">
        1082 -303 -1082 vlineto
        endchar
      </CharString>
      <CharString index="59">
        rmoveto
        1 203 rlineto
        -251 -220 hlineto
        -149 -58 -86 -47 -90 vhcurveto
        155 -80 rlineto
        116 99 84 168 155 vvcurveto
        endchar
      </CharString>
      <CharString index="60">
        168 464 169 hstem
        55 211 197 210 vstem
        695 return
      </CharString>
      <CharString index="61">
        76 21 -21 216 218 return
      </CharString>
      <CharString index="62">
        -99 -70 85 -106 hhcurveto
        return
      </CharString>
      <CharString index="63">
        rmoveto
        -293 647 rlineto
        -343 hlineto
        477 -930 rlineto
        -526 318 526 vlineto
        476 930 rlineto
        -342 hlineto
        endchar
      </CharString>
      <CharString index="64">
        rmoveto
        -326 hlineto
        -231 -484 -230 484 rlineto
        -327 hlineto
        403 -746 rlineto
        -419 302 407 vlineto
        endchar
      </CharString>
      <CharString index="65">
        -40 callgsubr
        -301 -708 vlineto
        -442 708 rlineto
        -303 -37 callgsubr
        708 hlineto
        442 -708 rlineto
        endchar
      </CharString>
      <CharString index="66">
        hstem
        82 318 613 318 vstem
        return
      </CharString>
      <CharString index="67">
        1165 return
      </CharString>
      <CharString index="68">
        -191 hlineto
        237 -399 -237 -400 rlineto
        191 hlineto
        return
      </CharString>
      <CharString index="69">
        -20 173 182 hstemhm
        163 303 return
      </CharString>
      <CharString index="70">
        -1165 303 return
      </CharString>
      <CharString index="71">
        237 315 hvcurveto
        21 vlineto
        329 -147 220 -275 vhcurveto
        121 -570 rmoveto
        hintmask 10111000
        -169 return
      </CharString>
      <CharString index="72">
        289 -20 rmoveto
        231 136 141 243 hvcurveto
        835 -526 -244 212 -566 vlineto
        return
      </CharString>
      <CharString index="73">
        503 245 hstem
        122 572 vstem
        694 503 rmoveto
        245 -572 -245 vlineto
        endchar
      </CharString>
      <CharString index="74">
        -73 callsubr
        rmoveto
        return
      </CharString>
      <CharString index="75">
        244 hstem
        return
      </CharString>
      <CharString index="76">
        269 hmoveto
        322 hlineto
        -149 955 rlineto
        291 244 -665 -236 hlineto
        67 -17 rlineto
        return
      </CharString>
      <CharString index="77">
        169 hstem
        51 641 vstem
        692 return
      </CharString>
      <CharString index="78">
        vhcurveto
        302 return
      </CharString>
      <CharString index="79">
        165 -39 50 -41 -72 vvcurveto
        -47 -36 -63 -123 -152 -71 49 120 vhcurveto
        -302 hlineto
        return
      </CharString>
      <CharString index="80">
        24 -20 244 -203 -21 return
      </CharString>
      <CharString index="81">
        17 callsubr
        -14 callgsubr
        return
      </CharString>
      <CharString index="82">
        -152 38 -54 35 63 vvcurveto
        50 50 63 115 116 65 -68 -75 -45 callsubr
        return
      </CharString>
      <CharString index="83">
        -73 callsubr
        -20 return
      </CharString>
      <CharString index="84">
        -37 callsubr
        52 -42 -81 callsubr
        -52 -52 -50 callgsubr
        endchar
      </CharString>
      <CharString index="85">
        -20 243 -222 -21 878 244 hstemhm
        return
      </CharString>
      <CharString index="86">
        hintmask 11101001
        -63 callgsubr
        return
      </CharString>
      <CharString index="87">
        hstemhm
        70 990 -296 296 return
      </CharString>
      <CharString index="88">
        -522 -78 callsubr
        return
      </CharString>
      <CharString index="89">
        -40 callgsubr
        rmoveto
        return
      </CharString>
      <CharString index="90">
        243 hstemhm
        return
      </CharString>
      <CharString index="91">
        27 callsubr
        955 244 hstemhm
        221 305 return
      </CharString>
      <CharString index="92">
        144 138 178 31 hvcurveto
        6 hlineto
        return
      </CharString>
      <CharString index="93">
        125 314 return
      </CharString>
      <CharString index="94">
        -153 -82 callgsubr
        return
      </CharString>
      <CharString index="95">
        -1498 302 509 hlineto
        -71 63 84 -42 112 hhcurveto
        273 return
      </CharString>
      <CharString index="96">
        1199 -20 hstem
        return
      </CharString>
      <CharString index="97">
        649 -37 245 return
      </CharString>
      <CharString index="98">
        19 callgsubr
        rmoveto
        -551 vlineto
        74 -64 -85 43 -108 hhcurveto
        -271 return
      </CharString>
      <CharString index="99">
        hintmask 00000000
        hintmask 11110000
        return
      </CharString>
      <CharString index="100">
        -21 36 callsubr
        return
      </CharString>
      <CharString index="101">
        -593 21 -21 1255 311 6 callgsubr
        return
      </CharString>
      <CharString index="102">
        -28 callsubr
        -44 -38 -53 return
      </CharString>
      <CharString index="103">
        18 callsubr
        776 24 callgsubr
        -173 157 -293 vhcurveto
        return
      </CharString>
      <CharString index="104">
        -558 21 -21 31 callgsubr
        -33 callsubr
        131 -49 callsubr
        return
      </CharString>
      <CharString index="105">
        61 -57 -106 hvcurveto
        endchar
      </CharString>
      <CharString index="106">
        19 callgsubr
        hlineto
        hintmask 10011100
        -484 -1312 rmoveto
        -146 return
      </CharString>
      <CharString index="107">
        171 hlineto
        -10 -112 -51 -11 -57 vvcurveto
        -51 44 -40 58 return
      </CharString>
      <CharString index="108">
        -106 -44 -49 -92 -49 -49 3 7 -47 vhcurveto
        -1 -236 rlineto
        return
      </CharString>
      <CharString index="109">
        140 hlineto
        227 122 -152 -288 hvcurveto
        endchar
      </CharString>
      <CharString index="110">
        -102 -66 -69 -90 -90 66 -69 102 return
      </CharString>
      <CharString index="111">
        -68 callsubr
        hstem
        return
      </CharString>
      <CharString index="112">
        -1125 -613 181 return
      </CharString>
      <CharString index="113">
        hstem
        115 -58 callgsubr
        return
      </CharString>
      <CharString index="114">
        35 28 -3 -6 24 return
      </CharString>
      <CharString index="115">
        -24 callgsubr
        hstem
        return
      </CharString>
      <CharString index="116">
        235 315 return
      </CharString>
      <CharString index="117">
        301 hintmask 01111000
        667 37 callsubr
        -117 -87 -46 return
      </CharString>
      <CharString index="118">
        53 -20 244 512 242 247 249 hstem
        return
      </CharString>
      <CharString index="119">
        314 1199 -419 -244 105 hlineto
        endchar
      </CharString>
      <CharString index="120">
        38 52 53 return
      </CharString>
      <CharString index="121">
        -176 846 rcurveline
        -316 hlineto
        185 -815 return
      </CharString>
      <CharString index="122">
        159 381.16 220.84 return
      </CharString>
      <CharString index="123">
        244 168 159 hstem
        return
      </CharString>
      <CharString index="124">
        63 302 return
      </CharString>
      <CharString index="125">
        -16 243 return
      </CharString>
      <CharString index="126">
        1536 return
      </CharString>
      <CharString index="127">
        -236 270 112 84 43 71 63 vhcurveto
        return
      </CharString>
      <CharString index="128">
        72 416 rlineto
        -187 hlineto
        -72 -416 rlineto
        return
      </CharString>
      <CharString index="129">
        hhcurveto
        144 55 -130 -175 hvcurveto
        endchar
      </CharString>
      <CharString index="130">
        -73 callgsubr
        hstem
        return
      </CharString>
      <CharString index="131">
        hlineto
        266 return
      </CharString>
      <CharString index="132">
        vlineto
        hintmask 11011100
        -484 -858 rmoveto
        -146 return
      </CharString>
      <CharString index="133">
        -94 -47 -84 vhcurveto
        147 -79 rlineto
        99 90 return
      </CharString>
      <CharString index="134">
        787 hstem
        323 209 vstem
        532 return
      </CharString>
      <CharString index="135">
        -96 -1 -69 -60 -103 hhcurveto
        return
      </CharString>
      <CharString index="136">
        92 vlineto
        89 58 50 103 return
      </CharString>
      <CharString index="137">
        hstem
        -4 31 callgsubr
        vstem
        return
      </CharString>
      <CharString index="138">
        1208 return
      </CharString>
      <CharString index="139">
        hstem
        91 302 382 -49 callsubr
        return
      </CharString>
      <CharString index="140">
        -310 210 -207 313 vhcurveto
        return
      </CharString>
      <CharString index="141">
        5 callgsubr
        91 182 return
      </CharString>
      <CharString index="142">
        -153 -220 153 -558 vlineto
        return
      </CharString>
      <CharString index="143">
        1082 rmoveto
        return
      </CharString>
      <CharString index="144">
        -102 -67 -69 return
      </CharString>
      <CharString index="145">
        -20 34 -20 hstemhm
        163 314 return
      </CharString>
      <CharString index="146">
        rmoveto
        245 -902 -245 vlineto
        return
      </CharString>
      <CharString index="147">
        hlineto
        314 -954 rmoveto
        710 return
      </CharString>
      <CharString index="148">
        0 253 949 17 callsubr
        return
      </CharString>
</ttFont>
